<svg version="1" xmlns="http://www.w3.org/2000/svg" width="954.667" height="954.667" viewBox="0 0 716.000000 716.000000"><path d="M11 296.4c0 3.2.2 3.4 3.3 3.3 2.9-.2 3.2-.5 3.3-3.5 0-3-.2-3.2-3.3-3.2-3.1 0-3.3.2-3.3 3.4zM20.2 296.2c.2 2.1.9 3.2 2.2 3.4 3.1.4 4.3-.6 4.3-3.6 0-2.7-.3-3-3.4-3-3.2 0-3.4.2-3.1 3.2zM28.9 294c-.1.5-.1 1.7-.1 2.5 0 2.8.2 3 3.1 3.1 3.1.2 4.1-1.4 3.3-4.9-.5-1.8-6.1-2.5-6.3-.7zM37.9 293.4c-.1.3-.1 1.8-.2 3.3-.1 2.4.3 2.7 3.3 2.8 3.1 0 3.4-.3 3.4-3 0-2.6-.4-3-3.2-3.3-1.8-.2-3.2-.1-3.3.2zM46.8 295.4c-.7 3.3.2 4.4 3.4 4.4 1.9 0 2.7-.6 3-2.2.7-3.4-.1-4.6-3.2-4.6-2.1 0-2.9.5-3.2 2.4zM55.5 296.2c0 3 .3 3.3 3.3 3.4 3 0 3.2-.2 3.2-3.3 0-3.1-.2-3.3-3.2-3.3s-3.3.2-3.3 3.2zM64.4 296.2c.1 3 .4 3.3 3.4 3.4 3 .1 3.2-.1 3.2-3.2 0-3.2-.2-3.4-3.3-3.4-3.1 0-3.3.2-3.3 3.2zM73.9 293.2c-.6 1.3-.6 5.8-.1 5.9 5.9 1 6.2.9 6.2-2.7 0-3.1-.2-3.4-3-3.4-1.6 0-3.1.1-3.1.2zM82.4 296.2c.2 2.8.6 3.2 3.4 3.4 3 .2 3.2.1 3.2-3.2 0-3.2-.2-3.4-3.4-3.4-3.3 0-3.4.2-3.2 3.2zM118.2 296.2c.3 2.9.6 3.3 3.3 3.3 2.7 0 3-.4 3.3-3.3.3-3.1.2-3.2-3.3-3.2s-3.6.1-3.3 3.2zM127 296.5c0 3.3.2 3.5 3.2 3.2 2.9-.2 3.3-.6 3.4-3.5.1-3-.1-3.2-3.2-3.2-3.2 0-3.4.2-3.4 3.5zM136 296.4c0 3.3.2 3.4 3.2 3.2 2.9-.2 3.3-.6 3.4-3.4.1-3-.1-3.2-3.2-3.2-3.2 0-3.4.2-3.4 3.4zM145 296.3c0 3.1.2 3.3 3.2 3.3 3-.1 3.3-.4 3.4-3.4.1-3-.1-3.2-3.2-3.2-3.2 0-3.4.2-3.4 3.3zM154 296.4c0 3 .2 3.3 3 3.2 1.7-.1 3-.5 3-.9v-3.2c0-2.1-.5-2.5-3-2.5-2.7 0-3 .3-3 3.4zM162.5 295.2c.1 1.3.3 2.8.4 3.4.1 1.6 6.1 1.2 6.2-.3.5-4.7.4-4.8-3.2-5.1-3.3-.3-3.6-.1-3.4 2zM171.5 296c0 1.6.2 3 .5 3.1.3 0 1.6.2 2.9.5 2.9.5 4-.8 3.3-4.2-.3-1.9-1-2.4-3.6-2.4-2.8 0-3.1.3-3.1 3zM180.6 294.6c-.9 2.4 1.1 5.3 3.7 5.1 2.8-.1 3.5-1.2 2.9-4.3-.3-1.8-1.1-2.4-3.2-2.4-1.6 0-3 .7-3.4 1.6zM189.7 293.7c-.2.5-.2 1.4-.1 2 .1.7.2 2 .3 2.8.1 1.1 1 1.5 3.1 1.3 2.7-.2 3-.6 3-3.5 0-3-.3-3.3-2.9-3.3-1.7 0-3.2.3-3.4.7zM198.5 295.7c.3 4.2.3 4.2 3.5 4.1 2.7-.1 3-.4 3-3.5s-.2-3.3-3.4-3.3c-3 0-3.3.3-3.1 2.7zM207.9 293.2c-.6 1.3-.6 5.8-.1 5.9 5.8.8 6.2.7 6.2-2.8 0-3-.3-3.3-3-3.3-1.6 0-3.1.1-3.1.2zM225 296.4c0 3.1.2 3.3 3.3 3.2 2.9-.1 3.2-.5 3.5-3.4.3-3.1.2-3.2-3.2-3.2-3.4 0-3.6.2-3.6 3.4zM234.2 296.2c.3 2.9.6 3.3 3.3 3.3 2.7 0 3-.4 3.3-3.3.3-3.1.2-3.2-3.3-3.2s-3.6.1-3.3 3.2zM243.2 296.2c.3 2.9.6 3.3 3.3 3.3 2.7 0 3-.4 3.3-3.3.3-3.1.2-3.2-3.3-3.2s-3.6.1-3.3 3.2zM296.7 293.7c-.2.5-.1 1.9.2 3.3.5 1.9 1.3 2.5 3.4 2.6 1.5.1 2.7-.4 2.8-1 0-.6.2-2.1.3-3.4.2-1.9-.2-2.2-3-2.2-1.8 0-3.5.3-3.7.7zM305.9 293.4c-.9 4 .2 6 3.5 6.2 1.4 0 2.7-.3 2.7-.8.6-4.7.3-5.3-2.9-5.6-1.7-.2-3.3-.1-3.3.2zM314.7 293.7c-.2.5-.2 1.4-.1 2 .1.7.2 1.9.3 2.7.1 1.4 6 2 6.2.7.7-5.6.5-6.1-2.8-6.1-1.7 0-3.4.3-3.6.7zM335 296.5c0 3.3.2 3.5 3.2 3.2 2.9-.2 3.3-.6 3.4-3.5.1-3-.1-3.2-3.2-3.2-3.2 0-3.4.2-3.4 3.5zM344 296.4c0 3.3.2 3.4 3.2 3.2 2.9-.2 3.3-.6 3.4-3.4.1-3-.1-3.2-3.2-3.2-3.2 0-3.4.2-3.4 3.4zM352.9 293.7c0 .5-.2 1.8-.3 3-.2 1.3 0 2.3.3 2.4 6.2.9 7.1.3 6.3-3.7-.3-1.9-1.1-2.4-3.3-2.4-1.6 0-2.9.3-3 .7zM361.9 293.2c-.4 1.3-.3 5.8.1 5.9.3.1 1.9.2 3.5.3 3.1.2 3.2 0 2.6-5.7-.1-.6-6-1.1-6.2-.5zM370.8 293.5c-.2.3-.3 1.8 0 3.4.3 2.5.8 2.9 3.2 2.9 2.3-.1 2.9-.6 3.2-3 .5-3.4.2-3.8-3.2-3.8-1.5 0-2.9.2-3.2.5zM379.9 293.5c-.1.3-.1 1.4-.1 2.5 0 3.4.1 3.6 3.2 3.5 2.7 0 3-.3 3-3.2 0-3-.3-3.3-3-3.3-1.6 0-3 .2-3.1.5zM388.4 296.2c.1 2.9.5 3.3 3.4 3.4 3 .1 3.2-.1 3.2-3.2 0-3.2-.2-3.4-3.4-3.4-3.1 0-3.3.2-3.2 3.2zM397.4 296c-.1 1.6.1 3.1.5 3.1 5.7 1 6.1.9 6.1-2.7 0-3.2-.2-3.4-3.3-3.4-2.9 0-3.2.3-3.3 3zM406.4 296.2c.1 2.9.5 3.3 3.4 3.4 3 .1 3.2-.1 3.2-3.2 0-3.2-.2-3.4-3.4-3.4-3.1 0-3.3.2-3.2 3.2zM451 296.5c0 3.3.2 3.5 3.2 3.2 2.9-.2 3.3-.6 3.4-3.5.1-3-.1-3.2-3.2-3.2-3.2 0-3.4.2-3.4 3.5zM460 296.3c0 3.4.5 3.7 6.1 2.8.4-.1.6-1.5.5-3.1-.1-2.7-.4-3-3.3-3-3.1 0-3.3.2-3.3 3.3zM469 296.4c0 3.1.2 3.3 3.2 3.2 2.9-.1 3.3-.5 3.4-3.4.2-3 0-3.2-3.2-3.2s-3.4.2-3.4 3.4zM478 296.4c0 3.1.2 3.3 3.2 3.2 3.3-.1 3.5-.6 2.9-5.6 0-.6-1.4-1-3.1-1-2.7 0-3 .3-3 3.4zM486.7 293.7c-.2.5-.2 1.4-.1 2 .1.7.2 1.9.3 2.7.1.9 1.2 1.4 3 1.4 2.9-.1 4.4-2.5 3.3-5.6-.4-1.3-5.8-1.7-6.5-.5zM495.4 296c-.1 1.7.2 3 .5 3.1 4.5.7 6 .4 6.5-1.4.8-3.2-.4-4.7-3.8-4.7-2.8 0-3.1.3-3.2 3zM504.9 293.5c-.1.3-.1 1.7-.2 3.2-.1 2.3.3 2.7 3.1 2.9 3.1.2 3.5 0 3.5-3.1s-.4-3.5-3.3-3.5c-1.6 0-3 .2-3.1.5zM513.9 293.2c-.6 2-.2 5.9.7 6.2 2.9 1.1 4.9-.1 5.2-3.2.3-3 .1-3.2-2.7-3.2-1.7 0-3.1.1-3.2.2zM522.4 296.2c.2 2.8.6 3.2 3.4 3.4 3 .2 3.2.1 3.2-3.2 0-3.2-.2-3.4-3.4-3.4-3.3 0-3.4.2-3.2 3.2zM549 296.4c0 3.1.2 3.3 3.3 3.2 2.9-.1 3.2-.5 3.5-3.4.3-3.1.2-3.2-3.2-3.2-3.4 0-3.6.2-3.6 3.4zM558.2 296.2c.3 3.2 1.2 3.7 6.1 2.9.4 0 .7-1.5.7-3.1 0-2.8-.3-3-3.6-3-3.4 0-3.5.1-3.2 3.2zM567.2 296.2c.3 2.9.6 3.3 3.3 3.3 2.7 0 3-.4 3.3-3.3.3-3.1.2-3.2-3.3-3.2s-3.6.1-3.3 3.2zM620.8 294.2c-.9 2.7.7 5.3 3.4 5.5 2.8.2 3.8-1.5 3-5-.5-2-5.7-2.4-6.4-.5zM629.9 293.4c-.1.3-.1 1.8-.2 3.3-.1 2.4.3 2.7 3.3 2.8 3.1 0 3.4-.3 3.4-3 0-2.6-.4-3-3.2-3.3-1.8-.2-3.2-.1-3.3.2zM638.8 295.4c-.3 1.4-.2 2.9.1 3.4.8 1.2 6.1 1 6.2-.3 0-.5.2-2 .3-3.3.2-1.9-.2-2.2-3-2.2-2.6 0-3.3.5-3.6 2.4zM379.4 304.3c.1 2.9.4 3.2 3.4 3.5 3.2.3 3.3.2 3-3-.3-2.9-.7-3.3-3.4-3.5-2.8-.1-3 .1-3 3zM11 305.4c0 3.4.1 3.6 3.3 3.3 2.8-.2 3.2-.6 3.2-3.2 0-2.7-.4-3-3.2-3.3-3.2-.3-3.3-.2-3.3 3.2zM20 305.3c0 3 .3 3.3 3 3.2 1.7 0 3.1-.2 3.1-.5.1-.3.2-1.7.3-3.3.2-2.4-.1-2.7-3.1-2.7-3.1 0-3.3.2-3.3 3.3zM28.7 302.7c-.2.5-.3 1.9-.3 3.3.1 2.1.6 2.5 3.1 2.5 3 .1 4.7-2.3 3.7-5.3-.4-1.3-5.8-1.7-6.5-.5zM37.9 302.5c-.1.3-.1 1.4-.1 2.5 0 3.5.1 3.7 2.8 3.6 5.1-.3 5.4-6.6.3-6.6-1.6 0-2.9.2-3 .5zM46.9 302.5c-.1.3-.1 1.7-.2 3.2-.1 2.5.2 2.8 3.3 2.8 3.1 0 3.3-.2 3.4-3.3.1-3-.1-3.2-3.1-3.2-1.8 0-3.3.2-3.4.5zM55.9 303c-.6 5-.3 5.5 2.6 5.5 2.7 0 3-.4 3.3-3.3.3-3 .1-3.2-2.7-3.2-1.7 0-3.1.4-3.2 1zM64.4 305.2c.1 3 .4 3.3 3.4 3.4 3 .1 3.2-.1 3.2-3.2 0-3.2-.2-3.4-3.3-3.4-3.1 0-3.3.2-3.3 3.2zM73.7 302.7c-.3.7-.3 1.5.1 5.1.1.7 1.4 1.1 3.2 1 2.7-.2 3-.6 3-3.5 0-3-.3-3.3-2.9-3.3-1.7 0-3.2.3-3.4.7zM82.4 305.2c.1 2.9.5 3.3 3.4 3.4 3 .1 3.2-.1 3.2-3.2 0-3.2-.2-3.4-3.4-3.4-3.1 0-3.3.2-3.2 3.2zM91.2 305.5c.1 3.2.3 3.4 3.2 3.2 2.7-.2 3.1-.7 3.4-3.5.3-3.1.2-3.2-3.2-3.2-3.4 0-3.5.1-3.4 3.5zM118 305.5c0 3.3.1 3.4 3.5 3.3 3.3-.1 3.5-.3 3.5-3.5 0-3.1-.2-3.3-3.5-3.3s-3.5.2-3.5 3.5zM127 305.4c0 3.2.2 3.5 3 3.4 3-.1 4-1.3 3.6-4.4-.2-1.3-1.3-2-3.4-2.2-3-.3-3.2-.2-3.2 3.2zM136 305.4c0 3.5.6 3.8 6.1 2.7.3 0 .5-1.5.5-3.1 0-2.7-.3-3-3.3-3-3.1 0-3.3.2-3.3 3.4zM145 305.4c0 3.4.1 3.6 3.3 3.3 2.8-.2 3.2-.6 3.2-3.2s-.4-3-3.3-3.3c-3.1-.3-3.2-.2-3.2 3.2zM154 305.6c0 3.3.2 3.5 2.8 3.2 4.9-.6 5.1-6.8.1-6.8-2.7 0-2.9.3-2.9 3.6zM162.9 302.5c-.1.3-.1 1.7-.2 3.2-.1 2.4.3 2.8 3 2.9 2.6.1 3.2-.3 3.6-2.5.3-1.4.3-2.9 0-3.3-.5-.9-6.2-1.1-6.4-.3zM172 304.4v3.3c0 .4 1.4.8 3.2.8 2.9 0 3.2-.3 3.2-3 0-2.6-.4-3-3.2-3.3-2.8-.3-3.2 0-3.2 2.2zM180.8 303.7c-.7 3.2.3 5.3 2.5 5.3 3.1 0 4.2-1.1 4.3-4.3.1-2.4-.2-2.7-3.1-2.7-2.3 0-3.4.5-3.7 1.7zM189.8 303.2c-.3.7-.2 2.3 0 3.5.3 1.8 1 2.3 3.3 2.1 2.6-.2 2.9-.6 2.9-3.5 0-3-.3-3.3-2.9-3.3-1.6 0-3.1.5-3.3 1.2zM198.5 305.2c.1 3 .5 3.3 3.3 3.5 3 .1 3.2-.1 3.2-3.3 0-3.2-.2-3.4-3.3-3.4-3.1 0-3.3.2-3.2 3.2zM207.7 302.7c-.3.5-.4 1.9-.3 3.2.1 2 .7 2.5 3.4 2.7 3 .2 3.2.1 3.2-3.2 0-3.1-.3-3.4-2.9-3.4-1.7 0-3.2.3-3.4.7zM225 305.3c0 3.1.2 3.3 3.5 3.3s3.5-.2 3.5-3.3c0-3.1-.2-3.3-3.5-3.3s-3.5.2-3.5 3.3zM234 305.4c0 3 .3 3.3 2.8 3.1 4.2-.3 4.2-.3 4.2-3.5 0-2.8-.3-3-3.5-3-3.3 0-3.5.2-3.5 3.4zM243.2 305.2c.3 3 .6 3.3 3.6 3.4 3 0 3.2-.2 3.2-3.3 0-3.1-.2-3.3-3.6-3.3s-3.5.1-3.2 3.2zM296.7 302.7c-.2.5-.2 1.4-.1 2 .1.7.2 1.9.3 2.7.1 1.6 6.1 1.7 6.2.1 0-.5.2-2 .3-3.3.2-1.9-.2-2.2-3-2.2-1.8 0-3.5.3-3.7.7zM305.6 304.7c.1 1.6.3 3 .3 3.3.1.3 1.4.6 3 .6 3.1.2 4.1-1.4 3.3-4.9-.3-1.2-1.4-1.7-3.6-1.7-2.8 0-3.1.3-3 2.7zM314.6 305.2c.1 3 .4 3.3 3.2 3.5 3.2.1 4.2-1.4 3.4-5-.3-1.2-1.4-1.7-3.6-1.7-2.9 0-3.1.3-3 3.2zM335 305.4c0 3.2.2 3.5 3 3.4 3-.1 4-1.3 3.6-4.4-.2-1.3-1.3-2-3.4-2.2-3-.3-3.2-.2-3.2 3.2zM344 305.4c0 3.5.6 3.8 6.1 2.7.3 0 .5-1.5.5-3.1 0-2.7-.3-3-3.3-3-3.1 0-3.3.2-3.3 3.4zM352.9 302.7c0 .5-.2 1.8-.3 3-.2 1.3 0 2.4.3 2.4 4.9 1 5.9.7 6.4-1.9.3-1.5.3-3 0-3.4-.6-1-6.3-1-6.4-.1zM361.6 304.7c.1 1.6.3 3.2.3 3.6.2 1.8 5.6.2 6.2-1.8.9-3.2-.1-4.5-3.5-4.5-2.8 0-3.1.3-3 2.7zM370.6 305.2c.1 2.9.4 3.3 3 3.3 2.1.1 3.1-.5 3.5-2 .9-3.2-.1-4.5-3.5-4.5-2.9 0-3.1.3-3 3.2zM388.6 302.8c-.3.5-.3 1.7-.1 2.8.2 1 .4 2.2.4 2.5.1.4 1.5.6 3.1.5 2.7-.1 3-.4 3-3.3 0-3-.3-3.3-2.9-3.3-1.7 0-3.2.4-3.5.8zM397.7 302.7c-.3.5-.4 1.9-.2 3.2.1 1.9.8 2.5 3.3 2.7 3.1.4 3.2.2 3.2-3.1 0-3.2-.2-3.5-2.9-3.5-1.7 0-3.2.3-3.4.7zM406.5 303.2c-1.1 3.2.2 5.3 3.3 5.5 3 .1 3.2-.1 3.2-3.3 0-3.1-.2-3.4-3-3.4-1.7 0-3.3.6-3.5 1.2zM415.4 305c0 1.6.2 3.1.5 3.1.3.1 1.8.2 3.4.3 2.4.2 2.7-.1 2.7-3.1 0-3.1-.2-3.3-3.3-3.3-3 0-3.3.3-3.3 3zM442 305.4c0 3.6.1 3.7 6.3 2.7.4 0 .7-1.5.7-3.1 0-2.8-.3-3-3.5-3-3.3 0-3.5.2-3.5 3.4zM451 305.4c0 3.2.2 3.4 3.1 3.2 2.8-.2 3.2-.7 3.5-3.4.4-3.1.2-3.2-3.1-3.2-3.3 0-3.5.2-3.5 3.4zM460 305.3c0 3.1.3 3.4 3 3.5 1.7 0 3.1-.2 3.1-.6.8-4.7.3-5.7-2.8-6-3.1-.3-3.3-.2-3.3 3.1zM469 305.3c0 3.2.2 3.5 3 3.3 1.7 0 3.1-.3 3.1-.6.1-.3.2-1.6.3-3 .1-2.1-.4-2.5-3.1-2.8-3.1-.3-3.3-.2-3.3 3.1zM478 305.5c0 3.3.2 3.5 3 3.3 1.7-.1 3.1-.6 3.1-1 .7-4.6.3-5.3-2.9-5.6-3.1-.3-3.2-.2-3.2 3.3zM486.8 303.7c-.9 3.7.2 5.3 3.5 5 2.8-.2 3.1-.6 3.2-3.5.1-2.9-.2-3.2-3.1-3.2-2.2 0-3.3.5-3.6 1.7zM495.8 304.4c-.3 1.4-.2 2.8.1 3.3 1 1.3 6.1 1.3 6.2 0 0-.7.2-2.2.3-3.5.2-1.9-.2-2.2-3-2.2-2.6 0-3.3.5-3.6 2.4zM504.8 304.4c-.6 3 0 4 2.9 4.4 1.3.2 2.5-.4 3.1-1.5 1.5-3.3.8-4.8-2.4-5.1-2.7-.3-3.2.1-3.6 2.2zM513.6 304.2c.1 1.3.3 2.8.3 3.5.1.7 1.3 1.1 2.9 1 2.3-.2 2.7-.7 3-3.5.3-3 .2-3.2-3.1-3.2-2.9 0-3.3.3-3.1 2.2zM522.4 305.2c.1 2.9.5 3.3 3.4 3.4 3 .1 3.2-.1 3.2-3.2 0-3.2-.2-3.4-3.4-3.4-3.1 0-3.3.2-3.2 3.2zM531.7 302.7c-.3.5-.4 1.9-.3 3.3.1 2 .7 2.5 3.4 2.7 3 .3 3.2.1 3.2-3.2 0-3.2-.2-3.5-2.9-3.5-1.7 0-3.2.3-3.4.7zM549.2 305.2c.3 2.8.7 3.2 3.6 3.4 3 .2 3.2.1 3.2-3.2 0-3.2-.2-3.4-3.6-3.4s-3.5.1-3.2 3.2zM558.2 305.2c.3 2.9.7 3.3 3.6 3.5 3 .3 3.2.1 3.2-3.2 0-3.3-.2-3.5-3.6-3.5s-3.5.1-3.2 3.2zM567.2 305.2c.3 2.9.6 3.3 3.3 3.3 2.7 0 3-.4 3.3-3.3.3-3.1.2-3.2-3.3-3.2s-3.6.1-3.3 3.2zM620.9 302.5c-.1.3-.1 1.4-.1 2.5 0 3.6.2 3.8 3.6 3.7 2.5-.1 3.3-.5 3.1-1.7-.2-.8-.4-2.3-.4-3.3-.1-1.2-.9-1.7-3.1-1.7-1.6 0-3 .2-3.1.5zM629.7 302.7c-.3.7-.3 1.8.1 4.9.3 1.7 5.6 1.2 6.3-.6 1.1-2.8-.2-5-3.2-5-1.5 0-3 .3-3.2.7zM638.9 302.5c-.1.3-.1 1.7-.2 3.2-.1 2.5.3 2.8 3.1 2.8 1.8 0 3.2-.4 3.2-.8v-3.2c0-2.1-.5-2.5-3-2.5-1.6 0-3 .2-3.1.5zM12.8 310.8c-2.1.4-2.5 5.7-.5 6.4 2.6 1 5.2-.7 5.3-3.4.1-2.7-1.5-3.7-4.8-3zM21.2 310.8c-1.9.6-1.5 5.9.6 6.4 3 .8 4.8-.5 4.8-3.6-.1-2.9-2.1-3.9-5.4-2.8zM31 310.9c-1.7.4-2.5 1.3-2.5 2.6 0 3.2 1.2 4.2 4.2 3.8 2.3-.4 2.8-1 2.9-3.3.1-3.2-.9-3.9-4.6-3.1zM38.5 311c-1 1.6-1.3 6-.4 6.1.5.1 1.5.2 2.2.3 2.3.4 4-1.1 4.3-3.8.1-1.4 0-2.6-.4-2.7-4.2-.5-5.3-.5-5.7.1zM47.4 311.5c-1.8 4.6-.4 6.6 4.1 5.8 3.3-.7 2.6-5.5-.9-6.4-1.9-.5-2.9-.4-3.2.6zM55.7 313.3c-.4 2.8.8 4.5 3.1 4.1.6-.1 1.7-.2 2.2-.3.6 0 1-1.6 1-3.4 0-2.9-.3-3.2-2.9-3.2-2.5 0-3 .5-3.4 2.8zM66.8 310.8c-2.4.3-2.7.7-2.5 3.5.2 2.7.6 3.1 3.2 3.1 2.5 0 3-.4 3.3-2.8.4-3.4-.5-4.3-4-3.8zM75.9 310.8c-2.1.2-2.6.9-2.7 3.3 0 2.1.4 2.9 1.6 3 .9 0 2.5.2 3.5.4 1.3.3 1.7-.4 1.7-3 0-3.8-.4-4.2-4.1-3.7zM84.4 310.8c-1.5.2-2.1 1-2.1 3.2 0 2.3.5 2.9 2.9 3.2 3.4.5 3.8.2 3.8-3.3 0-2.9-1.2-3.7-4.6-3.1zM91.9 310.9c-.6 2.8-.5 5.7.3 6.2.5.3 2 .4 3.4.1 1.8-.3 2.4-1.1 2.4-3.2 0-2.3-.5-2.8-3-3.2-1.6-.3-3.1-.2-3.1.1zM101.7 310.8c-1.4.3-1.7 1.1-1.5 3.5.3 2.7.7 3.1 3.3 3.1 2.6 0 3-.4 3.3-3.1.3-3.2-1.3-4.3-5.1-3.5zM119.2 310.8c-.7.2-1.2 1.6-1.2 3.2 0 2.3.5 2.8 3 3.2 3.6.5 4 .2 4-3.3 0-2-.6-2.8-2.3-3.1-1.2-.2-2.8-.3-3.5 0zM127.5 310.8c-.3.3-.5 1.8-.5 3.3 0 3 1.2 3.8 4.6 3.1 1.6-.3 2.1-1.1 2-3.2-.1-2.3-.6-2.9-2.8-3.2-1.6-.3-3-.2-3.3 0zM136 313.6c0 2.2.6 3.3 1.8 3.6 3 .8 4.8-.5 4.8-3.6-.1-2.6-.5-2.9-3.4-3-2.9-.1-3.2.1-3.2 3zM147.7 310.8c-2.5.3-2.8.7-2.5 3.5.2 2.3.8 3.2 2.1 3.1.9-.1 2.4-.2 3.2-.3 1-.1 1.4-1 1.1-3.1-.4-3.7-.4-3.6-3.9-3.2zM155.1 311c-1.9 1.1-1 6.5 1.2 6.4 3.2-.3 3.5-.4 4-2.3.8-3.1-2.6-5.8-5.2-4.1zM165 310.9c-3 .7-3.9 5.6-1.2 6.3 3.1.8 5.7-.6 5.7-2.9-.1-3-1.5-4.1-4.5-3.4zM173 310.9c-1.5.6-1.9 3.9-.6 5.9.6 1 3.7.9 5.5-.2 1.4-.9-.3-5.9-1.9-6.1-.8-.1-2.2 0-3 .4zM181.2 311.4c-2 3.3-.2 6.4 3.5 5.9 2.3-.4 2.8-1 2.9-3.3.1-2.4-.3-2.9-2.8-3.2-1.6-.3-3.2 0-3.6.6zM189.9 312.1c-.1 1-.2 2.5-.3 3.1-.1 1.4 3.2 2.7 5.2 2 .6-.2 1.2-1.7 1.2-3.3 0-1.6-.6-2.9-1.2-3-.7 0-2.1-.2-3-.4-1.2-.2-1.8.3-1.9 1.6zM199.2 310.9c-1.5.9-1.1 6.1.4 6.2 4.7.5 4.9.4 5.2-2.7.3-2.7-.1-3.2-2.2-3.6-1.4-.3-2.9-.2-3.4.1zM208.9 311.1c-1.6 1-2.1 5.1-.7 6 .5.3 2 .4 3.4.1 1.8-.3 2.4-1.1 2.4-3.2 0-3-2.6-4.5-5.1-2.9zM227.3 310.8c-1.8.3-2.3 1-2.3 3.6 0 3.3.2 3.3 6.3 2.7 1.2-.2.8-5.9-.5-6.3-.7-.2-2.3-.2-3.5 0zM236.3 310.8c-1.8.3-2.3 1-2.3 3.3 0 1.6.5 2.9 1 3 5 .6 5.5.3 5.8-2.7.3-3.4-.8-4.2-4.5-3.6zM244.8 310.8c-1.9.4-2.6 6.1-.8 6.3 5 .6 5.5.3 5.8-2.7.3-3.3-1.3-4.4-5-3.6zM298 310.9c-1.8.7-1.8 5-.1 6.1.7.4 2.2.5 3.5.3 1.7-.4 2.2-1.1 2.1-3.4 0-1.6-.2-2.9-.5-3-.3 0-1.2-.2-2-.3-.8-.2-2.2-.1-3 .3zM305.9 311c-.8 5.1-.4 6 2.3 6h3.6c.8 0 1-5.9.2-6.1-2.5-.4-6-.4-6.1.1zM315.2 311.2c-.9.9-.4 5.7.7 5.9 4.5.6 5 .4 5.4-1.7.2-1.3.1-2.7-.2-3.2-.9-1.4-4.8-2.1-5.9-1zM335.5 310.8c-.3.3-.5 1.8-.5 3.3 0 3 1.2 3.8 4.6 3.1 1.6-.3 2.1-1.1 2-3.2-.1-2.3-.6-2.9-2.8-3.2-1.6-.3-3-.2-3.3 0zM344 313.6c0 2.2.6 3.3 1.8 3.6 3 .8 4.8-.5 4.8-3.6-.1-2.6-.5-2.9-3.4-3-2.9-.1-3.2.1-3.2 3zM355.5 311c-2.4.4-3 1-3 3 0 3.1.8 3.8 4.4 3.2 2.5-.3 2.8-.7 2.5-3.5-.5-3.6-.2-3.4-3.9-2.7zM363.1 310.9c-1.4.9-2.2 6-1 6.2.5.1 1.6.1 2.4.1 2.8 0 3.3-.2 3.8-2.1.8-3.1-2.6-5.8-5.2-4.2zM373 310.9c-3 .7-3.9 5.6-1.2 6.3 3.1.8 5.7-.6 5.7-2.9-.1-3-1.5-4.1-4.5-3.4zM381 310.9c-.9.3-1.5 1.6-1.4 2.9.2 2.8.4 3.1 3.5 3.4 2 .3 2.4-.2 2.7-2.8.3-3.3-1.7-4.7-4.8-3.5zM390 310.9c-.8.3-1.6 1.8-1.7 3.2-.1 2.1.3 2.8 2.2 3.1 3.4.7 4.7-.5 4.3-3.7-.3-2.8-2-3.8-4.8-2.6zM398.3 310.9c-1.7 1.2-1.3 5.9.5 6.3 3.4.8 5.2-.3 5.2-3.2 0-2.1-.6-2.9-2.4-3.2-1.4-.3-2.9-.2-3.3.1zM408.3 310.8c-1.7.3-2.1.9-1.9 3.5.1 1.8.8 3.2 1.4 3.1.7-.1 2.1-.2 3.2-.3 1.5-.1 2-.8 2-3 0-3.1-1.2-3.9-4.7-3.3zM417.5 310.9c-1.5.4-2.1 1.4-2 3.4 0 1.5.3 2.7.8 2.7h3.2c2.1 0 2.5-.5 2.5-2.9 0-3.1-1.4-4.1-4.5-3.2zM425.2 310.8c-1.6.5-1.6 6.2.1 6.3.6.1 2.2.3 3.5.4 1.9.2 2.2-.2 2.2-3 0-2.6-.5-3.4-2.3-3.7-1.2-.2-2.8-.3-3.5 0zM444.8 310.8c-2.3.3-2.8.8-2.8 3.1 0 3.5.4 3.8 4 3.3 2.5-.4 3-.9 3-3.3 0-3.2-.5-3.6-4.2-3.1zM452.8 310.8c-1.2.2-1.8 1.3-1.8 3.2 0 2.1.5 2.9 2.4 3.2 3.2.6 4.1-.1 4.3-3.4.1-2.7-1.6-3.8-4.9-3zM460.2 313.9c.3 3.1.6 3.5 3.2 3.5s3-.4 3.2-3.1c.2-2.9-.1-3.1-3.2-3.5-3.4-.4-3.5-.4-3.2 3.1zM470.2 310.8c-.7.2-1.2 1.8-1.2 3.6 0 3.2.2 3.3 6.2 2.7.4-.1.7-1.5.5-3.3-.2-3.1-2.1-4.2-5.5-3zM479 311c-.6.4-1 2-.8 3.5.2 2.3.8 2.9 3.1 3 1.5 0 2.7-.2 2.8-.5.8-4.4.4-5.9-1.7-6.3-1.2-.2-2.8-.1-3.4.3zM487.1 312.4c-.8 2.1-.4 4.5.8 4.7.3 0 1.4.2 2.4.4 1.2.2 2.1-.5 2.6-1.8 1.1-3 .4-4.4-2.5-5-1.9-.3-2.7.1-3.3 1.7zM496.9 311.1c-1.3.8-2.2 5.8-1.1 6 3.5.4 6.2.4 6.3-.1.7-4.5.3-5.9-1.8-6.3-1.2-.2-2.7-.1-3.4.4zM505.9 311.1c-1.5.9-2 4.7-.7 5.5 1.5 1 4.8 1.3 5.2.5.3-.4.7-1.9 1-3.3.3-2.1 0-2.7-1.9-3-1.3-.3-2.9-.2-3.6.3zM513.9 312.2c-.1 1-.2 2.4-.3 3-.1 1.4 3.2 2.7 5.2 2 .6-.2 1.2-1.8 1.2-3.6 0-2.8-.3-3.1-3-3.1-2.1 0-3 .5-3.1 1.7zM524.4 310.8c-1.5.2-2.1 1-2.1 3.2 0 2.3.5 2.9 2.9 3.2 3.4.5 3.8.2 3.8-3.3 0-2.9-1.2-3.7-4.6-3.1zM532.8 310.8c-1.1.2-1.6 1.3-1.6 3.3.1 1.6.4 2.9.7 3 5.5.7 6.1.5 6.1-2.7 0-3.3-1.6-4.4-5.2-3.6zM549.5 310.8c-.3.3-.5 1.9-.5 3.6 0 3.2.2 3.3 6.3 2.7.4-.1.7-1.4.7-3 0-2.4-.5-2.9-3-3.3-1.7-.3-3.2-.2-3.5 0zM559.8 310.8c-1.9.4-2.6 6.1-.8 6.3 5 .6 5.5.3 5.8-2.7.3-3.3-1.3-4.4-5-3.6zM568.8 310.8c-1.9.4-2.6 6.1-.8 6.3 5 .6 5.5.3 5.8-2.7.3-3.3-1.3-4.4-5-3.6zM622.2 310.9c-1.2.7-2.4 6-1.4 6.2 5.1.7 6 .5 6.5-1.7.2-1.2.1-2.7-.2-3.2-.9-1.3-3.7-2.1-4.9-1.3zM630.5 311c-1.2 1.9-1.2 5.9 0 6.4 3.6 1.4 7.4-2.4 5.5-5.5-.9-1.3-4.8-2-5.5-.9zM638.8 313.2c-.5 3.2.1 3.9 3.7 4.2 1.9.3 2.4-.2 2.7-2.6.5-3.2-.1-3.9-3.7-4.2-1.9-.3-2.4.2-2.7 2.6zM11.5 319.8c-.3.3-.5 1.9-.5 3.6 0 3.2.4 3.4 6.2 2.7.8-.1.7-6.1-.1-6.2-3.4-.5-5.2-.5-5.6-.1zM20.3 320.6c-.2.7-.3 2.3-.1 3.5.2 1.8.9 2.3 3.3 2.3 2.7 0 3-.3 3-3.4 0-3-.3-3.3-2.9-3.4-1.5-.1-3 .4-3.3 1zM28.8 320.9c-.3.9-.2 2.5.1 3.6.6 1.8 1.2 2 5.7 1.6 1.1-.1 1.1-4.7.1-5.8-1.4-1.3-5.6-.9-5.9.6zM83 320.5c-.5.6-.7 2-.5 3 .2 1.1.4 2.2.4 2.5.1.3 1.3.5 2.9.4 2.4-.1 2.7-.5 2.7-3.4 0-2.7-.4-3.4-2.3-3.5-1.2-.1-2.6.3-3.2 1zM91.8 320c0 .3-.2 1.7-.3 3.2-.2 3 1.2 4 4.5 3.1 1.7-.4 2-1.2 1.8-3.7-.3-2.6-.7-3.1-3-3.1-1.6-.1-2.9.2-3 .5zM102.3 319.8c-1.8.3-2.3 1-2.3 3.3 0 1.6.5 2.9 1 3 5 .6 5.5.3 5.8-2.7.3-3.4-.8-4.2-4.5-3.6zM118.2 322.9c.2 2.7.7 3.6 2.1 3.5.9-.1 2.4-.2 3.3-.3 1.1-.1 1.4-1 1.2-3.3-.3-2.8-.7-3.2-3.6-3.3-3.2-.1-3.3 0-3 3.4zM127.5 319.8c-1 1.1-.5 6 .8 6.5 2.6 1 5.7-1.1 5.5-3.8-.1-1.4-.5-2.5-.8-2.6-2.9-.4-5.1-.5-5.5-.1zM136.5 319.9c-.8.7-.6 5.9.3 6.4.4.3 1.9.3 3.4 0 2.4-.4 2.7-1 2.5-3.6-.2-2.6-.7-3-3-3.1-1.5-.1-3 0-3.2.3zM226.8 319.8c-1.2.2-1.8 1.3-1.8 3.3 0 2.8.4 3.1 3.5 3.1s3.5-.3 3.5-3.1c0-3-1.8-4.1-5.2-3.3zM234.2 322.9c.3 3.2.6 3.5 3.3 3.5 2.6 0 3-.4 3.3-3.2.2-1.8 0-3.2-.5-3.3-6.4-.6-6.4-.6-6.1 3zM243.5 319.8c-.3.3-.5 1.8-.5 3.3 0 3 1.2 3.8 4.7 3.1 1.8-.3 2.3-1.1 2.3-3.3 0-1.6-.3-2.9-.7-3-.5 0-1.8-.2-3.1-.3-1.2-.2-2.4 0-2.7.2zM296.7 321.5c-.6 3.2.5 5 3 5 1.2 0 2.5-.3 2.8-.7.9-.9 1.4-5.8.6-5.9-4.8-.6-6-.3-6.4 1.6zM306.2 320.8c-.5.9-.7 2.3-.6 2.9.1.7.2 1.6.3 2 .1.9 6 1.1 6.2.3.5-3.2.4-5.2-.3-5.6-2.1-1.3-4.9-1.1-5.6.4zM315 321.4c-1.3 3.7.8 6 4.7 5 1.8-.5 2.5-4.5 1-6.1-1.6-1.5-4.9-.9-5.7 1.1zM335.5 319.8c-.3.3-.5 2-.5 3.8 0 3 .2 3.2 2.7 2.8 1.5-.3 3-.7 3.5-1 .8-.5.7-5.3-.2-5.5-2.9-.4-5.1-.5-5.5-.1zM344.5 319.9c-.8.7-.6 5.9.3 6.4.4.3 1.9.3 3.4 0 2.4-.4 2.7-1 2.5-3.6-.2-2.6-.7-3-3-3.1-1.5-.1-3 0-3.2.3zM352.8 320.9c-.8 3.1.6 5.6 3.3 5.8 2.1.1 2.8-.4 3.1-2.2.6-3.2-.4-4.6-3.5-4.9-1.7-.2-2.7.2-2.9 1.3zM409 319.9c-2.3.6-2.7 1.6-2.1 5.6 0 .6 1.3 1 2.9 1 2.4-.1 2.7-.6 3-3.8.2-2 0-3.6-.5-3.6-.4.1-1.9.4-3.3.8zM417.5 319.9c-3 .9-2.9 5.8.1 6.4 3.3.6 4.6-.6 4.2-3.8-.3-3.1-1.2-3.6-4.3-2.6zM424.3 320.6c-.2.7-.3 2.3-.1 3.5.2 1.8.9 2.3 3.3 2.3 2.6 0 3-.4 3.3-3.1.3-2.8 0-3.1-2.8-3.5-2-.3-3.4 0-3.7.8zM443 319.8c-1.8.6-1.2 6 .8 6.4 3.6.8 5.2-.3 5.2-3.7 0-2.9-.3-3.3-2.5-3.1-1.4 0-2.9.2-3.5.4zM451.5 319.8c-.3.3-.5 1.8-.5 3.3 0 3 1.2 3.8 4.7 3.1 1.7-.3 2.2-1 2-3.3-.1-1.6-.4-2.9-.7-3-2.7-.4-5.1-.5-5.5-.1zM460 322.6c0 2.4.5 3.3 2.2 3.8 1.3.3 2.7.1 3.2-.4 1.4-1.4 1.5-6 .2-6.1-.6 0-2.1-.2-3.3-.3-2-.2-2.3.2-2.3 3zM514.9 320.1c-.6.3-1.2 1.8-1.3 3.2-.2 1.9.2 2.6 1.8 2.9 3.5.7 4.6-.2 4.6-3.6 0-2.5-.4-3.2-2-3.2-1.2 0-2.5.3-3.1.7zM523.1 319.9c-1.4.9-.8 5.5.9 6.2 3.1 1.2 5.1-.2 4.8-3.4-.2-2.3-.8-3.1-2.5-3.2-1.2-.1-2.6.1-3.2.4zM531.6 319.9c-.1.3-.3 1.8-.4 3.2-.1 2 .4 2.8 2.1 3.1 1.3.2 2.8.3 3.5 0 1.3-.4 1.7-6.1.5-6.3-.5 0-1.8-.2-3.1-.3-1.3-.2-2.4 0-2.6.3zM550.8 319.8c-1.2.2-1.8 1.3-1.8 3.3 0 1.6.3 2.9.8 3 6 .6 6.2.5 6.2-2.7 0-3.3-1.6-4.4-5.2-3.6zM558 322.6c0 3.5 1.1 4.3 4.7 3.6 1.8-.3 2.3-1.1 2.3-3.3 0-1.6-.3-2.9-.7-3-6.1-.6-6.3-.5-6.3 2.7zM567.5 319.8c-.3.3-.5 1.8-.5 3.3 0 3 1.2 3.8 4.7 3.1 1.8-.3 2.3-1.1 2.3-3.3 0-1.6-.3-2.9-.7-3-.5 0-1.8-.2-3.1-.3-1.2-.2-2.4 0-2.7.2zM577 320c-.6.4-1 2-.8 3.5.2 2.3.8 2.9 3.1 3 1.5 0 2.8-.2 2.8-.5 1-4.5.6-5.8-1.6-6.2-1.3-.3-2.9-.2-3.5.2zM613.3 319.7c-2 .7-1.6 6 .5 6.5 2.3.6 4.8-.4 4.6-2-.1-.6-.2-1.8-.3-2.6-.1-1.5-2.8-2.5-4.8-1.9zM621.2 320.2c-.5.5-.7 2.1-.4 3.6.3 2.2.9 2.8 2.5 2.6 1.2-.1 2.7-.3 3.2-.3.6-.1 1.1-1.4 1-3 0-2.4-.5-3-2.7-3.3-1.5-.3-3.1-.1-3.6.4zM632.4 319.8c-2.9.3-3.1.5-2.5 3.5.6 2.6 1.1 3.1 3.6 3.1 2.1 0 2.9-.5 3-2 .3-3.7-.8-4.9-4.1-4.6zM638.9 319.8c-.5 4.1-.3 6.2.6 6.3.5 0 1.8.2 2.7.4 1 .2 2.1-.2 2.5-.8.8-1.3 1.1-5.7.3-5.8-.3 0-1.7-.2-3.2-.4-1.6-.2-2.8-.1-2.9.3zM11.5 328.8c-.3.3-.5 2-.5 3.7 0 2.7.3 3.1 2.3 2.9 1.2-.1 2.7-.3 3.3-.3 1-.1 1.5-6 .5-6.2-3.2-.5-5.2-.5-5.6-.1zM20.6 328.8c-.3.3-.6 2-.6 3.7 0 2.8.3 3.2 2.4 3 1.4-.2 3-.6 3.5-1 1.5-.9 1.4-5.5-.1-5.6-.7 0-2.1-.2-3-.4-.9-.2-1.9 0-2.2.3zM29.1 329.5c-.4.5-.6 1.6-.5 2.2.1.7.2 1.9.3 2.6.1 1.3 3.9 1.6 5.8.4.6-.4 1-1.5.8-2.5-.2-.9-.4-2.2-.4-2.7-.1-.6-1.3-1-2.7-1-1.4 0-2.9.4-3.3 1zM83.9 328.8c-1 .2-1.6 1.3-1.6 3.2 0 3 1.6 4 5 3.2 1.2-.3 1.7-1.4 1.7-3.6 0-3.2-.9-3.7-5.1-2.8zM92.3 328.9c-.5.3-1 1.8-1.1 3.2-.1 2.1.4 2.8 2.1 3.1 3.5.7 4.7-.1 4.7-3.2 0-2.1-.5-2.9-2.4-3.2-1.4-.3-2.9-.2-3.3.1zM101 329c-.6.4-1 2-.8 3.6.3 2.8.9 3.1 5.8 2.5.6-.1 1-1.4 1-3 0-2.2-.5-3-2.4-3.3-1.4-.3-3-.2-3.6.2zM120.2 328.8c-1.9.3-2.3.9-2 3.5.3 3.1.8 3.4 5.8 2.8 1.5-.2 1.2-5.8-.2-6.3-.7-.2-2.3-.2-3.6 0zM128.8 328.8c-1.3.2-1.8 1.3-1.8 3.6 0 2.8.3 3.2 2.3 3 1.2-.1 2.7-.3 3.2-.3.6-.1 1.1-1.4 1.1-3 .2-3-1.4-4.1-4.8-3.3zM137.8 328.8c-1.3.2-1.8 1.3-1.8 3.6 0 2.9.3 3.3 2.4 3.1 3.6-.4 4.6-1.3 4.6-3.9 0-2.4-2-3.5-5.2-2.8zM225.4 329.5c-1 2.6 0 6 1.9 5.9.9-.1 2.4-.2 3.2-.3 1.9-.1 2.1-6.1.3-6.2-.7 0-2.1-.2-3.1-.4s-2.1.3-2.3 1zM236.2 328.8c-1.9.3-2.3.9-2 3.5.3 3.1.8 3.4 5.8 2.8 1.5-.2 1.2-5.8-.2-6.3-.7-.2-2.3-.2-3.6 0zM245.2 328.8c-1.9.3-2.3.9-2 3.5.2 2.3.8 3.2 2.1 3.1.9-.1 2.4-.2 3.2-.3 1-.1 1.5-1.1 1.5-3 0-3.1-1.2-3.9-4.8-3.3zM297.3 329.3c-1.1 1.8-1.1 4.7.1 5.4 1.6 1.1 4.6 1.1 5.2.1 1.1-1.8 1.1-5.8 0-5.9-.6 0-1.9-.2-2.8-.4-1-.2-2.1.2-2.5.8zM306.3 329.3c-1.5 2.5-.9 5.6 1.4 6 1.2.2 2.6.1 3.2-.2 1.5-1 2.2-6.1.8-6.2-.7 0-2-.2-2.9-.4-1-.2-2.1.2-2.5.8zM315.7 329.2c-1.7 1-1.5 5.2.2 5.9.8.3 2.4.4 3.6.2 1.9-.4 2.3-1.8 1.6-6.3-.1-.8-4-.7-5.4.2zM336.8 328.8c-2.5.5-2.5 5.8 0 6.4 2.8.8 4.7-.5 4.9-3.3.2-2.8-1.5-3.9-4.9-3.1zM345.8 328.8c-1.3.2-1.8 1.3-1.8 3.6 0 2.9.3 3.3 2.4 3.1 3.6-.4 4.6-1.3 4.6-3.9 0-2.4-2-3.5-5.2-2.8zM353.2 329.4c-.5.6-.7 1.7-.6 2.3.1.7.2 1.9.3 2.7.1 1.3 3.9 1.5 5.9.2 1-.6.9-4.2-.1-5.3-1.2-1.1-4.7-1.1-5.5.1zM407.8 328.8c-1 .2-1.6 1.2-1.6 2.5.2 3.1 1.4 4.4 4 4.2 1.9-.1 2.4-.8 2.6-3.6.3-3.6-.4-4-5-3.1zM415.7 328.9c-.2.3-.3 1.9-.3 3.6.1 3 .2 3 5.1 2.6 1.5-.1 2.2-6 .8-6.2-.5 0-1.8-.2-3.1-.3-1.3-.2-2.4 0-2.5.3zM426.2 328.8c-1.9.3-2.3.9-2 3.5.3 3.1.8 3.4 5.8 2.8 1.5-.2 1.2-5.8-.2-6.3-.7-.2-2.3-.2-3.6 0zM443.8 328.8c-1.9.4-2.6 6.1-.8 6.3 5.1.6 5.5.4 5.5-3 0-3.5-1-4.2-4.7-3.3zM452.8 328.8c-1.2.2-1.8 1.3-1.8 3.3 0 1.6.3 2.9.8 3 5.9.6 5.4 1 5.7-3.3.2-2.7-1.4-3.8-4.7-3zM461.1 328.8c-1.5.5-1.4 5.9.2 6.4.6.3 2.1.2 3.2-.1 1.8-.5 2.2-2 1.6-5.9-.1-.8-3.1-1-5-.4zM514.8 329.1c-1.4.9-1.7 5.9-.3 6 .5 0 2 .2 3.3.3 1.9.2 2.2-.2 2.2-3.4 0-2.9-.4-3.6-2-3.6-1.2 0-2.6.3-3.2.7zM524.5 328.9c-4.1 1.2-2.6 6.9 1.7 6.6 1.8-.1 2.4-.9 2.6-3.2.3-3.3-1-4.3-4.3-3.4zM532.2 328.9c-.4.3-.9 1.8-1 3.3-.1 2 .3 2.8 1.6 2.9.9 0 2.5.2 3.5.4 1.5.3 1.8-.2 1.5-3.3-.2-2.8-.7-3.6-2.5-3.7-1.2-.1-2.6.1-3.1.4zM558 331.6c0 3.3 1.6 4.4 5.3 3.6 2-.4 2.5-6.1.5-6.3-.7 0-2.3-.2-3.5-.3-2-.2-2.3.2-2.3 3zM568.8 328.8c-1.2.2-1.8 1.3-1.8 3.2 0 1.9.6 3 1.8 3.2 3.4.8 5.2-.3 5.2-3.2 0-2.9-1.8-4-5.2-3.2zM577.8 328.8c-2.5.5-2.4 5.8.1 6.5 2.7.7 5.1-1.1 5.1-3.7 0-2.4-2-3.5-5.2-2.8zM585.5 328.8c-.3.3-.5 2-.5 3.7 0 2.7.3 3.1 2.3 2.9 1.2-.1 2.7-.3 3.3-.3 1-.1 1.5-6 .5-6.2-3.2-.5-5.2-.5-5.6-.1zM603.3 329.6c-1.1 3 .2 5.7 3 6 1.5.1 2.8 0 2.9-.4.4-2.2.4-6.2-.1-6.3-4-.5-5.4-.4-5.8.7zM613.1 328.8c-1.5.5-1.4 5.9.1 6.4 2.5.9 5.9-.4 5.4-1.9-.3-.8-.6-2.2-.6-3.2 0-1.6-2.2-2.2-4.9-1.3zM622 329c-2.2 1.4-1.9 5.1.4 6 2.9 1.1 5.3-.4 5.1-3.1-.2-2.5-3.4-4.2-5.5-2.9zM631.2 328.8c-1.6.2-2.2.8-1.8 1.9.3.8.6 2.3.6 3.2 0 1.2.7 1.7 2.3 1.5 1.2-.1 2.7-.3 3.2-.3.6-.1 1-1.4 1-3 0-3.2-1.3-3.9-5.3-3.3zM12.3 337.7c-.7.2-1.3 1.8-1.3 3.4 0 2.8.2 3 3.3 2.7 2.5-.2 3.2-.8 3.3-2.6.1-1.8-2.3-4.5-3.8-4.1-.2 0-.9.3-1.5.6zM20.5 337.8c-.3.3-.5 1.8-.5 3.4 0 2.5.3 2.8 3.4 2.8s3.4-.2 3.2-3c0-1.7-.3-3-.6-3.1-2.8-.4-5.1-.5-5.5-.1zM29.3 337.9c-.4.3-.7 1.3-.7 2.1.1.8.2 2.1.3 2.7 0 .7 1.4 1.3 3 1.3 3.1 0 4.1-1.4 3.2-4.5-.6-1.9-4.1-2.9-5.8-1.6zM84.3 338.1c-1.7.6-2.2 1.5-2.1 3.4.2 2.1.7 2.5 3.5 2.5 3 0 3.3-.3 3.3-2.9 0-3.3-1.5-4.2-4.7-3zM92.7 337.8c-1.3.2-1.6 1.1-1.4 3 .3 2.2.9 2.8 3.6 3 3.1.3 3.2.2 2.9-2.9-.3-3.2-1.5-4-5.1-3.1zM101.8 337.8c-1.2.2-1.8 1.3-1.8 3.3 0 2.7.3 2.9 3.5 2.9 3.3 0 3.5-.2 3.5-3.3 0-3.3-.8-3.8-5.2-2.9zM119.2 337.8c-.7.2-1.2 1.7-1.2 3.3 0 2.6.3 2.9 3.5 2.9s3.5-.3 3.5-2.9c0-2.2-.5-3-2.3-3.3-1.2-.2-2.8-.3-3.5 0zM128.3 337.7c-.7.2-1.3 1.8-1.3 3.4 0 2.6.3 2.9 3.3 2.9 2.8 0 3.2-.3 3.4-3 .1-1.7-.2-3-.7-3-.4 0-1.4-.2-2.2-.4-.7-.3-1.9-.2-2.5.1zM136 340.7c0 3.1.2 3.3 3.4 3.3 3.1 0 3.3-.2 3.2-3.2-.1-2.8-.5-3.1-3.4-3.2-3-.1-3.2.1-3.2 3.1zM225.5 337.9c-.3.2-.5 1.7-.5 3.3 0 2.5.3 2.8 3.6 2.8 3.4 0 3.5-.1 3.2-3.2-.3-2.7-.7-3.2-3.1-3.3-1.5 0-3 .1-3.2.4zM235.8 337.7c-1.2.3-1.8 1.4-1.8 3.4 0 2.7.3 2.9 3.5 2.9s3.5-.3 3.5-2.9c0-1.7-.6-3.1-1.6-3.5-.9-.3-1.6-.5-1.7-.5-.1.1-1 .3-1.9.6zM245.3 337.8c-1.8.3-2.3 1-2.3 3.3 0 2.7.3 2.9 3.5 2.9s3.5-.3 3.5-2.9c0-3.1-1.2-3.9-4.7-3.3zM297.3 338.3c-.5.7-.8 2.1-.8 3.2 0 1.6.7 2 3.4 2 2.9 0 3.5-.4 3.6-2.3.1-1.3-.2-2.5-.7-2.8-1.8-1.1-4.7-1.2-5.5-.1zM305.7 340c-.7 3.4-.1 4 3.6 4 2.8 0 3.3-.3 3.2-2.5-.2-3.1-.9-3.8-3.9-4-1.9 0-2.6.6-2.9 2.5zM316.5 337.9c-1.3.4-2 1.5-2 3.1 0 2.1.6 2.6 3.3 2.8 1.7.2 3.2-.1 3.2-.7 0-.5.3-1.6.6-2.4.7-1.9-2.4-3.6-5.1-2.8zM335.5 337.8c-.3.3-.5 1.8-.5 3.4 0 2.5.3 2.8 3.3 2.8 2.8 0 3.2-.3 3.4-2.9.2-2.5-.2-2.9-2.8-3.3-1.6-.3-3.1-.2-3.4 0zM345.2 337.8c-.7.2-1.2 1.7-1.2 3.3 0 2.6.3 2.9 3.3 2.9 2.9 0 3.3-.3 3.5-2.9.2-2.3-.3-3-2.1-3.3-1.2-.2-2.8-.3-3.5 0zM353.9 337.9c-.8.3-1.4 1.7-1.4 3.1 0 2.1.5 2.5 3.5 2.8 3.3.3 3.5.1 3.5-2.7.1-2.2-.4-3-2-3.4-1.2-.2-2.8-.1-3.6.2zM407.4 337.9c-.5.3-.9 1.8-1 3.3 0 2.5.3 2.8 3.3 2.8s3.3-.3 3.3-3c0-1.7-.3-3-.7-3.1-.5 0-1.5-.2-2.4-.4-.9-.1-2 0-2.5.4zM417 337.9c-.8.3-1.6 1.8-1.6 3.3-.1 2.5.2 2.8 3.2 2.8 3.1 0 3.4-.3 3.4-2.9 0-3-2.1-4.4-5-3.2zM424 340.7c0 3.1.2 3.3 3.5 3.3 3.2 0 3.5-.2 3.5-3 0-1.7-.3-3-.7-3.1-6.1-.6-6.3-.6-6.3 2.8zM443.2 337.8c-.7.2-1.2 1.7-1.2 3.3 0 2.6.3 2.9 3.5 2.9s3.5-.3 3.5-2.9c0-2.2-.5-3-2.3-3.3-1.2-.2-2.8-.3-3.5 0zM451.4 337.9c-.2.2-.4 1.7-.4 3.3 0 2.5.3 2.8 3.4 2.8 3.2 0 3.5-.2 3.2-2.8-.2-1.5-.4-2.9-.5-3.2-.1-.6-5.1-.7-5.7-.1zM461.2 337.8c-.7.2-1.2 1.7-1.2 3.3 0 2.6.3 2.9 3.4 2.9s3.4-.2 3.2-2.9c-.1-2.9-2.4-4.3-5.4-3.3zM515.5 337.9c-1.3.4-2 1.5-2 3.1 0 2.1.6 2.6 3.3 2.8 3.2.3 3.3.2 3-2.9-.3-3.5-1.1-4.1-4.3-3zM523.2 337.9c-.5.3-.9 1.7-.8 3.1.1 2.1.7 2.6 3.4 2.8 3 .3 3.2.1 3.2-2.6 0-2.3-.5-3.1-2.4-3.4-1.4-.3-2.9-.2-3.4.1zM532.7 337.8c-1.3.3-1.6 1.1-1.4 3 .3 2.2.9 2.8 3.5 3 2.9.3 3.2.1 3.2-2.6 0-3.1-1.7-4.2-5.3-3.4zM567.5 337.9c-.3.2-.5 1.7-.5 3.3 0 2.5.3 2.8 3.6 2.8 3.4 0 3.5-.1 3.2-3.2-.3-2.7-.7-3.2-3.1-3.3-1.5 0-3 .1-3.2.4zM576.5 337.8c-.3.3-.5 1.8-.5 3.4 0 2.7.3 2.9 3.2 2.6 2.7-.2 3.3-.7 3.5-2.9.1-2.3-.3-2.8-2.8-3.1-1.6-.3-3.1-.2-3.4 0zM585 340.7c0 3.3.2 3.4 3.3 3.1 2.8-.3 3.2-.7 3.2-3.2s-.4-2.9-3.2-3.1c-3.1-.3-3.3-.1-3.3 3.2zM594.5 337.8c-.3.3-.5 1.8-.5 3.4 0 2.5.3 2.8 3.3 2.8s3.3-.3 3.3-3c0-1.7-.2-3-.5-3.1-3.2-.5-5.2-.5-5.6-.1zM603.6 337.8c-.3.3-.6 1.8-.6 3.4 0 2.5.3 2.8 3.3 2.8 2.9 0 3.3-.3 3.2-2.7 0-2-.6-2.8-2.7-3.4-1.5-.4-2.9-.4-3.2-.1zM612 340.7c0 3 .3 3.3 3 3.3 2.9 0 3.3-.4 3.3-3.5 0-2.8-.3-3-3.3-3-2.7 0-3 .3-3 3.2zM621.3 338.3c-.3.6-.7 2.1-.8 3.4-.1 1.9.4 2.3 3.1 2.3 5 0 5.5-5.5.6-6.5-1.2-.2-2.5.1-2.9.8zM11 349.6c0 3.2.2 3.4 3.4 3.4 3.3 0 3.4-.2 3.2-3.2-.2-2.9-.6-3.3-3.4-3.4-3-.2-3.2 0-3.2 3.2zM20 349.7c0 3.1.2 3.3 3.4 3.3 3.1 0 3.3-.2 3.2-3.2-.1-2.9-.4-3.2-3.4-3.3-3-.1-3.2.2-3.2 3.2zM28.7 348.6c-.6 3.3.6 4.6 3.8 4.2 5-.6 3.8-6.9-1.2-6.5-1.4.1-2.3.9-2.6 2.3zM82.9 346.4c-.1.1-.2 1.6-.4 3.3-.3 3.1-.1 3.3 3.1 3.3s3.4-.2 3.4-3.3c0-3-.3-3.3-3-3.3h-3.1zM91.9 346.4c0 .1-.2 1.6-.4 3.3-.3 3.2-.2 3.3 3.1 3.3 3.4 0 3.5-.1 3.2-3.3-.3-2.7-.7-3.2-3-3.3-1.6-.1-2.8-.1-2.9 0zM100.5 346.8c-.3.3-.5 1.8-.5 3.4 0 2.5.3 2.8 3.6 2.8 3.4 0 3.5-.1 3.2-3.2-.3-2.7-.7-3.2-3-3.3-1.5-.1-3 0-3.3.3zM118 349.7c0 3.1.2 3.3 3.5 3.3 3.2 0 3.5-.2 3.5-3 0-1.7-.3-3.1-.7-3.1-.5-.1-2-.2-3.5-.3-2.5-.2-2.8.1-2.8 3.1zM127 349.6c0 3.2.2 3.4 3.4 3.4 3.2 0 3.4-.2 3.2-3.2-.1-2.9-.5-3.3-3.4-3.4-3-.1-3.2.1-3.2 3.2zM136.6 346.7c-.3.3-.6 1.9-.6 3.5 0 2.5.3 2.8 3.3 2.8s3.3-.3 3.3-3c0-1.7-.2-3-.5-3.1-.3 0-1.5-.2-2.7-.4-1.2-.3-2.4-.2-2.8.2zM145 349.6c0 3.2.2 3.4 3.4 3.4 3.2 0 3.5-.2 3.2-2.8-.2-1.5-.4-2.9-.5-3.2 0-.3-1.4-.6-3.1-.6-2.8-.2-3 .1-3 3.2zM154 349.8c0 3.2.2 3.3 3.2 3 3.2-.3 3.6-1 2.9-5.6 0-.4-1.4-.7-3.1-.7-2.7-.1-3 .2-3 3.3zM162.9 346.6c-.1.2-.1 1.3-.1 2.4 0 3.7.2 4 3.1 4 5 0 4.9-6.4-.1-6.6-1.6-.1-2.8 0-2.9.2zM171.9 347.2c-.1.4-.1 1.5-.1 2.3 0 3.1.3 3.5 3.1 3.5 3.1 0 4.1-1.7 3.3-5.3-.3-1.2-1.3-1.6-3.3-1.5-1.6.1-3 .6-3 1zM180.8 348.3c-.7 3.5.1 4.7 3.2 4.7 4.9 0 4.8-6.3-.1-6.7-2.1-.1-2.8.3-3.1 2zM225.5 346.9c-.3.2-.5 1.7-.5 3.3 0 2.5.3 2.8 3.6 2.8 3.4 0 3.5-.1 3.2-3.3-.3-2.8-.7-3.2-3.1-3.2-1.5-.1-3 .1-3.2.4zM234.5 346.8c-.3.3-.5 1.8-.5 3.4 0 2.5.3 2.8 3.5 2.8 3.3 0 3.5-.2 3.5-3.3 0-3.1-.3-3.4-3-3.4-1.6 0-3.2.3-3.5.5zM243.5 346.9c-.3.2-.5 1.7-.5 3.3 0 2.5.3 2.8 3.6 2.8 3.4 0 3.5-.1 3.2-3.3-.3-2.8-.7-3.2-3.1-3.2-1.5-.1-3 .1-3.2.4zM296.9 347.6c-.5 4.9-.4 4.9 3.1 4.9 3.4 0 3.8-.6 3.1-5.3-.2-1.4-6.1-1-6.2.4zM305.7 347.3c-.2.6-.1 2.2.1 3.4.6 3.4 5.8 3.3 6.4-.2.3-1.4 0-2.9-.6-3.3-1.7-1.3-5.4-1.2-5.9.1zM315 347.9c0 1.1-.3 2.6-.6 3.5-.5 1.3.1 1.6 2.9 1.6 2.9 0 3.5-.4 3.9-2.4.6-3.2-.1-4.1-3.4-4.4-2.2-.1-2.8.3-2.8 1.7zM335 349.6c0 3.2.2 3.4 3.5 3.4s3.5-.2 3.1-2.8c-.2-1.5-.5-2.9-.5-3.2-.1-.3-1.4-.6-3.1-.6-2.8-.2-3 .1-3 3.2zM344 349.6c0 3.2.2 3.4 3.4 3.4 3.2 0 3.4-.2 3.3-3.2-.2-2.8-.6-3.2-3.4-3.4-3.1-.2-3.3-.1-3.3 3.2zM352.8 348.5c-.7 3.3.2 4.5 3.2 4.5s4.4-2.5 2.8-5.3c-1.3-2.4-5.6-1.8-6 .8zM406.9 346.4c-.1 0-.2 1.6-.4 3.3-.3 3.1-.1 3.3 3.1 3.3s3.4-.2 3.4-3.3c0-2.9-.3-3.2-3-3.3-1.6-.1-3-.1-3.1 0zM415.9 346.4c0 .1-.2 1.6-.4 3.3-.3 3.2-.2 3.3 3.1 3.3 3.4 0 3.5-.2 3.2-3.2-.3-2.7-.7-3.2-3-3.3-1.6-.1-2.8-.1-2.9-.1zM424.5 346.8c-.3.3-.5 1.8-.5 3.4 0 2.5.3 2.8 3.6 2.8 3.4 0 3.5-.1 3.2-3.2-.3-2.7-.7-3.2-3-3.3-1.5-.1-3 0-3.3.3zM442.6 346.7c-.3.3-.6 1.9-.6 3.5 0 2.5.3 2.8 3.5 2.8s3.5-.2 3.5-3c0-1.7-.3-3-.7-3.1-.5 0-1.7-.2-2.9-.4-1.2-.3-2.4-.2-2.8.2zM451 349.6c0 3.2.2 3.4 3.4 3.4 3.3 0 3.4-.2 3.2-3.2-.2-2.9-.6-3.3-3.4-3.4-3-.2-3.2 0-3.2 3.2zM460 349.7c0 3.1.2 3.3 3.4 3.3 3.1 0 3.3-.2 3.2-3.2-.1-2.9-.4-3.2-3.4-3.3-3-.1-3.2.2-3.2 3.2zM469 349.7c0 3.1.2 3.3 3.4 3.3 3.6 0 3.7-.4 2.7-6.1 0-.4-1.4-.6-3.1-.5-2.7.1-3 .4-3 3.3zM478.6 346.7c-.3.3-.6 1.9-.6 3.5 0 2.7.3 2.9 3.2 2.6 3.2-.3 3.6-1 2.9-5.6-.1-1-4.6-1.4-5.5-.5zM486.9 347.9c0 .9-.2 2.4-.4 3.3-.3 1.4.4 1.8 3 1.8 2.7 0 3.4-.4 3.7-2.4.6-3.2-.1-4.1-3.4-4.3-2 0-2.8.4-2.9 1.6zM495.7 348.5c-.6 3.3.3 4.5 3.3 4.5s4.2-1.6 3.3-4.9c-.7-2.8-6-2.5-6.6.4zM504.8 348c-.8 3.2.3 5 3.2 5 2.9 0 4-1.8 3.2-5.1-.5-2.1-5.9-2-6.4.1zM514.1 348.3c-1.2 3.2-.3 4.7 3 4.7 2.6 0 2.9-.3 2.9-3.3 0-2.8-.4-3.3-2.5-3.5-1.9-.1-2.8.4-3.4 2.1zM522.7 346.9c-.2.3-.4 1.8-.5 3.3-.2 2.6.1 2.8 3.3 2.8 3.3 0 3.5-.2 3.5-3.3 0-2.9-.3-3.2-3-3.3-1.7-.1-3.2.1-3.3.5zM532.4 346.8c-.5.4-1.1 1.9-1.2 3.4-.2 2.6.1 2.8 3.4 2.8 3.4 0 3.5-.1 3.2-3.2-.3-3.1-3-4.6-5.4-3zM576 349.7c0 3.1.2 3.3 3.3 3.3 2.9 0 3.2-.3 3.3-3 .1-1.7-.1-3-.5-3.1-5.6-.9-6.1-.6-6.1 2.8zM585 349.7c0 3.1.2 3.3 3.3 3.3 3.4 0 3.7-.5 2.8-6.1-.1-.4-1.4-.6-3.1-.5-2.7.1-3 .4-3 3.3zM594.7 346.7c-.4.3-.7 1.9-.7 3.5 0 2.5.3 2.8 3.4 2.8s3.3-.2 3.2-3.2c-.1-2.6-.6-3.2-2.7-3.5-1.4-.2-2.9 0-3.2.4zM603 349.6c0 3.2.2 3.4 3.4 3.4 3.3 0 3.4-.2 3.2-3.2-.2-2.8-.6-3.2-3.4-3.4-3-.2-3.2-.1-3.2 3.2zM612 349.7c0 3 .3 3.3 2.9 3.3 2.2 0 3-.5 3.3-2.4.7-3.3-.2-4.2-3.4-4.2-2.5 0-2.8.4-2.8 3.3zM11 358.8c0 3.2.2 3.3 3.3 3 3.1-.3 3.7-1.4 2.8-5.9 0-.4-1.4-.6-3.1-.5-2.7.1-3 .4-3 3.4zM20.5 355.8c-.3.3-.5 1.8-.5 3.4 0 2.7.3 2.9 3.3 2.6 2.8-.3 3.2-.7 3.2-3.2 0-2.6-.4-3-2.7-3.1-1.5-.1-3 0-3.3.3zM28.8 356.9c-.9 3.5.3 5.1 3.6 5.1 3.2 0 3.5-.6 2.7-6.1-.2-1.3-6-.4-6.3 1zM82.9 355.3c0 .1-.2 1.7-.5 3.4-.4 3.2-.3 3.3 3.1 3.3 3.3 0 3.5-.2 3.5-3.3 0-3.1-.3-3.4-3-3.5-1.6 0-3 0-3.1.1zM91.9 355.9c-.9 4.4-.3 5.6 2.9 5.9 3.2.3 3.3.2 3-2.9-.3-2.8-.7-3.3-3-3.4-1.6-.1-2.9.1-2.9.4zM100.5 355.8c-.3.3-.5 1.8-.5 3.4 0 2.5.3 2.8 3.6 2.8 3.4 0 3.5-.1 3.2-3.2-.3-2.7-.7-3.2-3-3.3-1.5-.1-3 0-3.3.3zM118 358.7c0 3.1.2 3.3 3.6 3.3s3.5-.1 3.2-3.3c-.3-2.9-.6-3.2-3.5-3.2-3.1-.1-3.3.2-3.3 3.2zM127 358.6c0 3.2.2 3.4 3.4 3.4 3.1 0 3.3-.2 3.2-3.2-.1-2.9-.5-3.3-3.4-3.4-3-.1-3.2.1-3.2 3.2zM136.5 355.8c-.3.3-.5 1.8-.5 3.4 0 2.5.3 2.8 3.3 2.8s3.3-.2 3.2-3.2c-.1-2.8-.5-3.2-2.8-3.3-1.5-.1-2.9 0-3.2.3zM145 358.8c0 3.2.2 3.3 3.3 3 3.1-.3 3.7-1.4 2.8-5.9 0-.4-1.4-.6-3.1-.5-2.7.1-3 .4-3 3.4zM154.5 355.8c-.3.3-.5 1.8-.5 3.4 0 2.4.4 2.8 3 2.8 1.7 0 3.1-.5 3.1-1 .5-4.8.3-5.4-2.4-5.5-1.5-.1-2.9 0-3.2.3zM162.8 356.8c-.9 3.7.2 5.3 3.5 5 3.1-.3 3.4-.9 2.8-5.6-.2-1.7-5.9-1.1-6.3.6zM171.6 356c-.1.3-.1 1.1 0 1.7.1.7.2 2 .3 2.8.1 1 1.1 1.5 3 1.5 3.2 0 4-1.2 3.3-4.7-.3-1.9-1-2.3-3.4-2.1-1.6.1-3.1.5-3.2.8zM181.5 355.8c-.5.4-1 1.9-1.1 3.4-.1 2.5.2 2.8 3.1 2.8 2.7 0 3.4-.5 3.7-2.4.3-1.4.2-2.8-.1-3.3-.8-1.1-4.4-1.5-5.6-.5zM226.3 355.7c-.7.3-1.3 1.8-1.3 3.4 0 2.7.3 2.9 3.6 2.9 3.4 0 3.5-.1 3.2-3.3-.3-3.2-2.1-4.1-5.5-3zM234.5 355.8c-.3.3-.5 1.8-.5 3.4 0 2.5.3 2.8 3.6 2.8 3.4 0 3.5-.1 3.2-3.2-.3-2.7-.7-3.2-3-3.3-1.5-.1-3 0-3.3.3zM243 358.7c0 3.1.2 3.3 3.6 3.3s3.5-.1 3.2-3.3c-.3-2.9-.6-3.2-3.5-3.3-3.1 0-3.3.2-3.3 3.3zM296.9 356.2c-.6 4.8-.4 5.3 3.3 5.6 3.1.3 3.6 0 3.3-1.5-.2-1-.4-2.6-.4-3.5-.1-1.2-.9-1.6-3.1-1.6-1.6.1-3 .5-3.1 1zM305.8 356.7c-.8 3.5.2 5.3 3.2 5.3 4.9 0 4.7-6-.3-6.7-1.7-.2-2.6.2-2.9 1.4zM314.9 356.9c0 .9-.2 2.4-.4 3.3-.3 1.4.4 1.8 3 1.8 2.7 0 3.4-.4 3.7-2.4.7-3.3-.2-4.4-3.4-4.4-1.9 0-2.8.6-2.9 1.7zM335 358.7c0 3.2.2 3.4 3.2 3.1 5.2-.5 4.9-6.7-.3-6.6-2.6.1-2.9.4-2.9 3.5zM344 358.7c0 3.2.2 3.4 3.2 3.1 5.2-.5 4.9-6.7-.3-6.6-2.6.1-2.9.4-2.9 3.5zM352.9 356.5c0 .5-.2 2-.3 3.3-.2 2.1.1 2.3 3.3 2 3.6-.3 3.7-.4 3.2-5.2-.1-1.6-6.1-1.7-6.2-.1zM406.6 356.5c-1.1 3 .1 5 3.2 5.3 3 .3 3.2.1 3.2-3 0-3-.3-3.3-2.9-3.4-1.7-.1-3.2.4-3.5 1.1zM415.7 355.9c-.2.3-.3 1.7-.3 3.1.1 2.1.7 2.6 3.4 2.8 3.2.3 3.3.2 3-3-.3-2.8-.7-3.3-3.1-3.4-1.5-.1-2.9.2-3 .5zM424.5 355.8c-.3.3-.5 1.8-.5 3.4 0 2.5.3 2.8 3.6 2.8 3.4 0 3.5-.1 3.2-3.3-.3-2.7-.7-3.2-3-3.3-1.5-.1-3 .1-3.3.4zM442 358.7c0 3.1.2 3.3 3.5 3.3 3.2 0 3.5-.2 3.5-3 0-1.7-.3-3-.7-3.1-6.1-.8-6.3-.7-6.3 2.8zM451 358.7c0 3.1.2 3.3 3.3 3.3 3.4 0 3.7-.5 2.8-6.1-.1-.4-1.4-.6-3.1-.5-2.7.1-3 .4-3 3.3zM460.5 355.8c-.3.3-.5 1.8-.5 3.4 0 2.5.3 2.8 3.3 2.8 3.1 0 3.3-.2 3.3-3.2-.1-2.8-.5-3.2-2.8-3.3-1.5-.1-3 0-3.3.3zM469 358.7c0 3.1.2 3.3 3.3 3.3 3.1 0 3.3-.2 3.2-3.3-.1-2.9-.4-3.2-3.3-3.3-3 0-3.2.2-3.2 3.3zM478.6 355.7c-.3.3-.6 1.9-.6 3.5 0 2.4.4 2.8 2.9 2.8 4.7 0 5-5.9.3-6.6-1-.2-2.2-.1-2.6.3zM486.9 355.7c-.1.1-.1 1.5-.2 3-.1 2.4.3 2.9 2.7 3.1 3.3.4 4.5-.9 3.8-4.3-.3-1.9-1-2.3-3.3-2.3-1.6.1-2.9.3-3 .5zM495.9 355.9c-.7 5.6-.5 6.1 2.7 6.1 3.4 0 4.3-1.1 3.6-4.6-.3-1.8-1.1-2.2-3.3-2.2-1.6.1-2.9.4-3 .7zM504.9 356.2c-.6 4.8-.4 5.3 3.3 5.6 3.1.3 3.6 0 3.3-1.5-.2-1-.4-2.6-.4-3.5-.1-1.2-.9-1.6-3.1-1.6-1.6.1-3 .5-3.1 1zM513.8 356.7c-.8 3.6.2 5.3 3.3 5.3 2.8 0 3-.2 2.7-3.2-.2-2.5-.8-3.2-2.9-3.5-1.9-.2-2.8.2-3.1 1.4zM522.6 356.5c-1.1 3 .1 5 3.2 5.3 3 .3 3.2.2 3.2-3.2 0-3.2-.2-3.5-3-3.4-1.6.1-3.1.7-3.4 1.3zM531.7 355.9c-.2.3-.3 1.7-.3 3.1.1 2.1.7 2.6 3.4 2.8 3 .3 3.2.2 3.2-3 0-3-.3-3.3-3-3.4-1.7-.1-3.2.1-3.3.5zM585.7 355.7c-.4.3-.7 1.9-.7 3.5 0 2.5.3 2.8 3.4 2.8s3.3-.2 3.2-3.2c-.1-2.6-.6-3.2-2.7-3.5-1.4-.2-2.9 0-3.2.4zM594.6 355.7c-.3.4-.6 1.9-.6 3.5 0 2.5.3 2.8 3.4 2.8s3.3-.2 3.2-3.2c-.1-2.8-.6-3.3-2.8-3.5-1.4-.1-2.9.1-3.2.4zM603 358.5c0 3.3.2 3.5 3.4 3.5 3.1 0 3.3-.2 3.2-3.2-.1-2.9-.5-3.3-3.4-3.5-3-.3-3.2-.1-3.2 3.2zM11 367.7c0 3.1.2 3.3 3.4 3.3 3.1 0 3.3-.2 3.2-3.3-.1-2.9-.4-3.2-3.4-3.3-3 0-3.2.2-3.2 3.3zM20 367.6c0 3.4.1 3.5 3.3 3.2 2.7-.2 3.3-.8 3.5-3.1.2-1.5 0-2.8-.5-2.8-6.4-.9-6.3-1-6.3 2.7zM28.8 366.5c-.7 3.3.2 4.5 3.3 4.5 2.8 0 3.2-.4 3.2-3.5 0-2.9-.3-3.1-3.2-3.1-2.2 0-3 .5-3.3 2.1zM82.9 364.4c-.1.1-.2 1.6-.3 3.3-.2 3.1 0 3.3 3.1 3.3s3.3-.2 3.3-3.3c0-3-.3-3.3-3-3.3h-3.1zM91.9 364.4c-.1.1-.2 1.6-.4 3.3-.2 3.1 0 3.3 3.2 3.3 3.3 0 3.4-.2 3.1-3.2-.3-2.7-.7-3.2-3-3.3-1.6-.1-2.9-.1-2.9-.1zM100.5 364.8c-.3.3-.5 1.8-.5 3.4 0 2.5.3 2.8 3.5 2.8 3.3 0 3.5-.2 3.5-3.3 0-3-.3-3.3-3-3.3-1.7 0-3.2.2-3.5.4zM118.6 364.7c-.3.4-.6 1.9-.6 3.5 0 2.5.3 2.8 3.6 2.8 3.4 0 3.5-.1 3.2-3.2-.2-2.7-.7-3.3-3-3.5-1.4-.1-2.9.1-3.2.4zM127 367.7c0 3.1.2 3.3 3.4 3.3 3.1 0 3.3-.2 3.2-3.3-.1-2.9-.4-3.2-3.4-3.3-3 0-3.2.2-3.2 3.3zM136 367.7c0 3.3.2 3.4 3.3 3.1 2.8-.3 3.2-.6 3.2-3.3 0-2.6-.4-3-3.3-3.1-3-.1-3.2.1-3.2 3.3zM145 367.6c0 3.2.2 3.4 3.3 3.4 2.9 0 3.2-.3 3.3-3 .2-3.2.2-3.2-3.8-3.5-2.5-.2-2.8.1-2.8 3.1zM154 367.6c0 3.2.2 3.4 3.3 3.4 3 0 3.2-.2 3.1-3.2-.1-2.8-.4-3.2-3.2-3.4-3-.2-3.2 0-3.2 3.2zM162.9 365c-.6 5-.3 5.5 2.7 5.8 2.7.3 3.2-.1 3.6-2.2.3-1.4.2-2.8-.1-3.3-.9-1.2-6.1-1.4-6.2-.3zM171.9 364.7c-.1.2-.1 1.5-.2 3-.1 2.5.2 2.8 3.4 2.8 3.4 0 3.5 0 3-4.9-.1-.9-1.2-1.3-3.1-1.2-1.6 0-3 .2-3.1.3zM180.9 365.2c-.1.4-.1 1.5-.1 2.3 0 3.3.3 3.6 3.5 3.3 3.2-.3 3.3-.5 2.8-5.1-.1-1.5-6-2-6.2-.5zM226.3 364.7c-.7.3-1.3 1.8-1.3 3.4 0 2.7.3 2.9 3.6 2.9 3.4 0 3.5-.1 3.2-3.2-.3-3.1-2.4-4.3-5.5-3.1zM234.5 364.8c-.3.3-.5 1.8-.5 3.4 0 2.5.3 2.8 3.6 2.8 3.4 0 3.5-.1 3.2-3.2-.3-2.7-.7-3.2-3-3.3-1.5-.1-3 0-3.3.3zM243.6 364.7c-.3.4-.6 1.9-.6 3.5 0 2.5.3 2.8 3.6 2.8 3.4 0 3.5-.1 3.2-3.2-.2-2.7-.7-3.3-3-3.5-1.4-.1-2.9.1-3.2.4zM296.7 366.6c-.6 3.3.6 4.6 3.9 4.2 2.8-.3 3-.5 2.5-5.1 0-.8-1.3-1.3-3-1.3-2.3 0-3 .5-3.4 2.2zM305.9 365.1c-.6 4.9-.4 5.4 3.1 5.7 3.3.3 3.5.1 3.5-2.9 0-2.9-.3-3.3-3.2-3.5-1.8-.1-3.3.2-3.4.7zM314.8 366.4c-.7 3.4.1 4.6 3.2 4.6 2.1 0 2.9-.5 3.2-2.4.7-3.3-.2-4.4-3.4-4.4-1.9 0-2.7.6-3 2.2zM335 367.6c0 3.2.2 3.4 3.4 3.4 3.3 0 3.4-.2 3.2-3.3-.2-2.8-.6-3.2-3.4-3.4-3-.1-3.2.1-3.2 3.3zM344 367.6c0 3.2.2 3.4 3.3 3.4 3.1 0 3.4-.3 3.4-3 0-1.7-.3-3.1-.6-3.1-5.5-1.1-6.1-.8-6.1 2.7zM352.9 365.4c0 .6-.2 2.1-.3 3.3-.2 2 .2 2.3 3 2.3 3.8 0 4.3-.6 3.5-4-.5-1.9-1.3-2.5-3.3-2.6-1.6-.1-2.8.4-2.9 1zM406.9 364.5c-.1 0-.2 1.5-.3 3.2-.2 3.1 0 3.3 3.1 3.3s3.3-.2 3.3-3.4c0-3.4-.3-3.6-6.1-3.1zM415.9 364.4c-.1.1-.2 1.6-.3 3.3-.2 3.1 0 3.3 3.1 3.3 3.3 0 3.4-.2 3.1-3.3-.3-2.7-.7-3.2-3-3.3-1.6-.1-2.9-.1-2.9 0zM424.5 364.8c-.3.3-.5 1.8-.5 3.4 0 2.5.3 2.8 3.5 2.8 3.3 0 3.5-.2 3.5-3.3 0-3-.3-3.3-3-3.3-1.7 0-3.2.2-3.5.4zM442.5 364.8c-.3.3-.5 1.8-.5 3.4 0 2.5.3 2.8 3.5 2.8s3.5-.2 3.5-3c0-1.7-.3-3.1-.7-3.1-2.9-.5-5.3-.5-5.8-.1zM451 367.6c0 3.2.2 3.4 3.4 3.4 3 0 3.3-.3 3.1-2.8-.3-3.9-.2-3.9-3.5-4-2.8-.1-3 .2-3 3.4zM460.5 364.8c-.3.3-.5 1.8-.5 3.4 0 2.5.3 2.8 3.4 2.8s3.3-.2 3.2-3.2c-.1-2.7-.5-3.2-2.9-3.3-1.5-.1-2.9 0-3.2.3zM469 367.6c0 3.2.2 3.4 3.4 3.4 3.1 0 3.3-.2 3.2-3.2-.1-2.9-.5-3.3-3.4-3.4-3-.1-3.2.1-3.2 3.2zM478.6 364.7c-.3.3-.6 1.9-.6 3.5 0 2.5.3 2.8 3.3 2.8 2.9 0 3.2-.3 3.2-3 0-1.7-.2-3-.5-3.1-.3 0-1.4-.2-2.6-.4-1.2-.3-2.4-.2-2.8.2zM486.9 365.5c-.4 4.9-.4 5 2.7 5.3 2.7.3 3.2-.1 3.6-2.2.6-3.2-.1-4.1-3.4-4.3-1.8-.1-2.8.3-2.9 1.2zM495.9 364.6c-.1.2-.1 1.3-.1 2.4 0 3.8.2 4.1 3.3 3.8 2.6-.2 3.2-.8 3.5-3.1.1-1.5 0-2.8-.4-2.8-3.2-.5-6.2-.7-6.3-.3zM504.8 367.7c-.4 3.3-.3 3.4 3.1 3.1 3.6-.3 3.7-.4 3.2-5.1 0-.8-1.3-1.3-3-1.3-2.6 0-3 .4-3.3 3.3zM513.9 365.1c-.6 4.8-.3 5.4 2.9 5.7 3 .3 3.2.1 3.2-3 0-3-.3-3.3-3-3.4-1.6-.1-3 .2-3.1.7zM522.6 364.9c-.1.3-.2 1.7-.2 3.1.1 2.1.7 2.6 3.4 2.8 3.1.3 3.2.2 3.2-3.2 0-3.2-.2-3.5-3-3.4-1.7.1-3.2.4-3.4.7zM531.9 364.4c-.1.1-.2 1.6-.4 3.3-.2 3.1 0 3.3 3.2 3.3 3.3 0 3.4-.2 3.1-3.2-.3-2.7-.7-3.2-3-3.3-1.6-.1-2.9-.1-2.9-.1zM585 367.6c0 3.2.2 3.4 3.4 3.4 3.1 0 3.3-.2 3.2-3.2-.1-2.8-.5-3.2-3.4-3.4-3-.2-3.2-.1-3.2 3.2zM594 367.7c0 3.3.2 3.4 3.3 3.1 2.8-.3 3.2-.6 3.2-3.3 0-2.7-.3-3-3.3-3.1-3 0-3.2.2-3.2 3.3zM603 367.5c0 3.3.2 3.5 3.4 3.5 3.1 0 3.3-.2 3.2-3.2-.1-2.9-.5-3.3-3.4-3.5-3-.3-3.2-.1-3.2 3.2zM11 376.7c0 3.2.2 3.4 3.2 3.1 2.1-.2 3.2-.9 3.4-2.2.4-3.1-.6-4.3-3.6-4.3-2.7 0-3 .3-3 3.4zM20 376.7c0 3.3.2 3.4 3.3 3.1 2.8-.3 3.2-.6 3.2-3.3 0-2.6-.3-3-3.2-3.1-3.1-.1-3.3.1-3.3 3.3zM28.9 374.2c-.1.4-.1 1.5-.1 2.3 0 3.1.3 3.5 3.2 3.5 2.7 0 3-.3 3-3.3s-.3-3.3-3-3.3c-1.6 0-3.1.3-3.1.8zM82.7 373.9c-.1.3-.2 1.7-.2 3.1 0 2.1.5 2.6 3.3 2.8 3 .3 3.2.2 3.2-3.1 0-3.1-.3-3.3-3.1-3.3-1.6 0-3.1.2-3.2.5zM92.5 373.8c-.6.4-1 1.8-1 3.2 0 2.1.5 2.6 3.3 2.8 3.2.3 3.3.2 3-2.9-.3-3.2-3-4.8-5.3-3.1zM100.3 374.6c-1.1 2.9.2 4.9 3.5 5.2 3.2.3 3.3.2 3-3-.3-2.9-.7-3.3-3.1-3.4-1.6-.1-3.1.5-3.4 1.2zM118.6 374c-.1.3-.3 1.7-.4 3.2-.2 2.6.1 2.8 3.3 2.8 3.3 0 3.5-.2 3.5-3.4 0-3.1-.2-3.4-3.1-3.2-1.7 0-3.2.3-3.3.6zM127 376.8c0 3.2.2 3.3 3.3 3 3.1-.3 3.7-1.4 2.8-5.9 0-.4-1.4-.6-3.1-.5-2.7.1-3 .4-3 3.4zM136 376.6c0 3.1.3 3.4 3 3.4 2.3 0 3.1-.5 3.6-2.5.8-3.2.2-3.8-3.6-4.1-2.8-.2-3 0-3 3.2zM226.3 373.7c-.7.3-1.3 1.8-1.3 3.4 0 2.6.3 2.9 3.5 2.9 3.3 0 3.5-.2 3.2-3.3-.2-3.2-2-4.1-5.4-3zM234.6 373.7c-.3.4-.6 1.9-.6 3.5 0 2.5.3 2.8 3.6 2.8 3.4 0 3.5-.1 3.2-3.1-.2-2.6-.8-3.2-3-3.5-1.4-.1-2.9 0-3.2.3zM243 376.6c0 3.2.2 3.4 3.6 3.4s3.5-.1 3.2-3.3c-.3-2.8-.7-3.2-3.5-3.4-3.1-.1-3.3.1-3.3 3.3zM252.3 374.7c-1 2.5.3 4.8 2.8 5.1 2.9.3 4.4-1.8 3.4-4.9-.7-2.1-5.4-2.3-6.2-.2zM288 376.6c0 3.2.2 3.4 3.3 3.4 2.9 0 3.2-.3 3.2-3 0-3.3.1-3.2-3.7-3.5-2.5-.2-2.8.1-2.8 3.1zM297.5 373.8c-.6.4-1 1.3-.9 1.9.1.7.2 2 .3 2.9.1 1.1 1 1.4 3.4 1.2 2.3-.2 3.2-.8 3.1-2.1-.1-.9-.2-2.4-.3-3.2-.1-1.6-3.8-2-5.6-.7zM305.8 375.3c-.7 3.5.1 4.7 3.2 4.7 4.8 0 4.7-6.3-.1-6.8-2.1-.2-2.8.3-3.1 2.1zM314.9 374.2c-.6 4.8-.3 5.3 3.2 5.6 3.6.3 3.7.1 3-6-.1-1-6.1-.7-6.2.4zM335 376.7c0 3.2.2 3.4 3.2 3.1 5.2-.5 4.9-6.7-.3-6.6-2.6.1-2.9.4-2.9 3.5zM344.5 373.8c-.3.3-.5 1.8-.5 3.4 0 2.7.3 2.9 3.2 2.6 3.1-.3 4.3-2.3 3.2-5.3-.5-1.2-4.8-1.8-5.9-.7zM353.2 374.7c-.5.9-.7 2.4-.4 3.5.3 1.5 1.2 1.8 3.6 1.6 3.1-.3 3.2-.5 2.7-5.1-.2-1.9-4.9-1.9-5.9 0zM406.6 373.9c-.1.3-.2 1.7-.2 3.1.1 2.1.7 2.6 3.4 2.8 3.1.3 3.2.2 3.2-3.2 0-3.2-.2-3.5-3-3.4-1.7.1-3.2.4-3.4.7zM416.5 373.8c-.6.4-1.1 1.8-1 3.2 0 2.1.5 2.6 3.3 2.8 3.2.3 3.3.2 3-2.9-.3-3.2-2.9-4.8-5.3-3.1zM424.3 374.6c-1.1 2.9.2 4.9 3.5 5.2 3.2.3 3.3.2 3-2.9-.3-2.8-.7-3.3-3.1-3.5-1.6 0-3.1.5-3.4 1.2zM442.5 373.8c-.3.3-.5 1.8-.5 3.4 0 2.5.3 2.8 3.5 2.8s3.5-.2 3.5-3c0-1.7-.3-3.1-.7-3.1-2.9-.5-5.3-.5-5.8-.1zM451 376.7c0 3.3.2 3.4 3.3 3.1 2.8-.3 3.2-.6 3.2-3.3 0-2.7-.3-3-3.2-3.1-3.1 0-3.3.2-3.3 3.3zM460 376.8c0 3.2.2 3.3 3.3 3 2.8-.3 3.2-.7 3.2-3.3 0-2.6-.3-2.9-3.2-3-3.1-.1-3.3.1-3.3 3.3zM513.9 373.7c-.1.2-.1 1.2-.1 2.3 0 3.7.2 4 3.2 4 2.7 0 3-.3 3-3.4s-.2-3.4-3-3.2c-1.6 0-3 .2-3.1.3zM522.6 374c-.1.3-.2 1.6-.2 3 .1 2.1.7 2.6 3.4 2.8 3 .3 3.2.2 3.2-3.1 0-3.2-.2-3.5-3.1-3.3-1.7 0-3.2.3-3.3.6zM532.5 373.8c-.6.4-1 1.8-1 3.2 0 2.1.5 2.6 3.3 2.8 3.2.3 3.3.2 3-2.9-.3-3.2-3-4.8-5.3-3.1zM585 376.7c0 3.3.2 3.4 3.3 3.1 2.8-.3 3.2-.6 3.2-3.3 0-2.7-.3-3-3.2-3.1-3.1 0-3.3.2-3.3 3.3zM594.5 373.8c-.3.3-.5 1.8-.5 3.4 0 2.5.3 2.8 3.3 2.8 3.1 0 3.3-.2 3.3-3.2-.1-2.8-.5-3.2-2.8-3.3-1.5-.1-3 0-3.3.3zM603 376.7c0 3.2.2 3.4 3.2 3.1 2.1-.2 3.2-.9 3.4-2.2.4-3.1-.6-4.3-3.6-4.3-2.7 0-3 .3-3 3.4zM11 385.5c0 3.5.1 3.6 3.3 3.3 2.8-.3 3.2-.6 3.2-3.3 0-2.7-.4-3-3.2-3.3-3.2-.3-3.3-.2-3.3 3.3zM20 385.4c0 3.4.2 3.6 3.4 3.6 3.1 0 3.3-.2 3.2-3.3-.1-2.9-.5-3.2-3.4-3.5-3.1-.3-3.2-.2-3.2 3.2zM28.9 383.5c-.1.8-.2 2.3-.3 3.2-.1 1.3.8 1.9 3 2.1 2.7.3 3.2 0 3.7-2.5.7-3.6.2-4.3-3.4-4.3-1.9 0-2.9.5-3 1.5zM82.4 385.5c0 3.3.2 3.5 3.3 3.5 3.1 0 3.3-.2 3.3-3.5s-.2-3.5-3.3-3.5c-3.1 0-3.3.2-3.3 3.5zM91.4 385.5c0 3.3.2 3.5 3.3 3.5 3.1 0 3.3-.2 3.3-3.5s-.2-3.5-3.3-3.5c-3.1 0-3.3.2-3.3 3.5zM100.7 382.7c-.4.3-.7 1.9-.7 3.5 0 2.7.3 2.9 3.3 2.6 2.8-.3 3.2-.7 3.5-3.6.3-2.9.1-3.2-2.6-3.2-1.6 0-3.2.3-3.5.7zM118.7 382.7c-.4.3-.7 1.9-.7 3.5 0 2.5.3 2.8 3.5 2.8 3.3 0 3.5-.2 3.5-3.5 0-3.2-.3-3.5-2.8-3.5-1.6 0-3.2.3-3.5.7zM127 385.4c0 3.4.2 3.6 3.4 3.6 3.2 0 3.4-.2 3.2-3.3-.1-2.8-.5-3.2-3.4-3.5-3.1-.3-3.2-.2-3.2 3.2zM136 385.4c0 3.4.2 3.6 3.3 3.6 3.1 0 3.3-.2 3.3-3.3-.1-2.9-.4-3.2-3.3-3.5-3.2-.3-3.3-.2-3.3 3.2zM234.7 382.7c-.4.3-.7 1.9-.7 3.4 0 2.4.4 2.7 3.5 2.7 3.3 0 3.5-.2 3.5-3.4 0-3.1-.3-3.4-2.8-3.4-1.6 0-3.2.3-3.5.7zM243.7 382.7c-.4.3-.7 1.9-.7 3.5 0 2.5.3 2.8 3.5 2.8 3.3 0 3.5-.2 3.5-3.5 0-3.2-.3-3.5-2.8-3.5-1.6 0-3.2.3-3.5.7zM252.2 385.2c.3 2.9.6 3.3 3.3 3.3 2.6 0 2.9-.4 3-3 0-2.7-.4-3-3.3-3.3-3.2-.3-3.3-.2-3 3zM261 385.6c0 3.4.1 3.5 3.2 3.2 2.9-.3 3.2-.6 3.3-3.6.1-3-.2-3.2-3.2-3.2-3.1 0-3.3.2-3.3 3.6zM279 385.4c0 3.3.2 3.6 2.9 3.6 5.2 0 5.4-6.3.3-6.8-3.1-.3-3.2-.2-3.2 3.2zM288 385.5c0 3.2.3 3.5 2.9 3.5 2.2 0 3-.5 3.3-2.3.7-3.5-.1-4.7-3.3-4.7-2.6 0-2.9.3-2.9 3.5zM296.7 382.7c-.2.5-.2 1.4-.1 2 .1.7.2 2 .3 2.8.2 2.2 5.8 2 6.3-.3.8-3.4-.3-5.2-3.3-5.2-1.5 0-3 .3-3.2.7zM305.5 383.7c.2 1 .4 2.6.4 3.5.1 1.3.9 1.8 3.1 1.8 1.7 0 3.1-.5 3.1-1 .6-5.2.4-5.5-3.3-5.8-3.1-.3-3.6 0-3.3 1.5zM335 385.5c0 3.5.1 3.6 3.2 3.3 2.9-.3 3.3-.6 3.3-3.3 0-2.7-.4-3-3.2-3.3-3.2-.3-3.3-.2-3.3 3.3zM344 385.5c0 3.5.1 3.6 3.2 3.3 2.8-.3 3.2-.7 3.3-3.3 0-2.7-.4-3-3.2-3.3-3.2-.3-3.3-.2-3.3 3.3zM352.7 382.7c-.2.5-.2 1.4-.1 2 .1.7.2 2 .3 2.8.2 2.2 5.8 2 6.3-.3.8-3.4-.3-5.2-3.3-5.2-1.5 0-3 .3-3.2.7zM406.9 382.2c-.1.2-.2 1.8-.4 3.5-.3 3.1-.1 3.3 3.1 3.3s3.4-.2 3.4-3.5c0-3.2-.2-3.5-3-3.5-1.6 0-3 .1-3.1.2zM415.5 383c-.2.3-.2 1.5 0 2.6.2 1 .4 2.2.4 2.6.1.5 1.5.8 3.1.8 2.8 0 3-.3 3-3.4 0-3.2-.2-3.5-3-3.4-1.7.1-3.3.4-3.5.8zM424 385.5c0 3.3.2 3.5 3.5 3.5s3.5-.2 3.5-3.5-.2-3.5-3.5-3.5-3.5.2-3.5 3.5zM442 385.5c0 3.3.2 3.5 3.5 3.5s3.5-.2 3.5-3.5-.2-3.5-3.5-3.5-3.5.2-3.5 3.5zM451 385.5c0 3.5.1 3.6 3.2 3.3 2.8-.3 3.2-.7 3.3-3.3 0-2.7-.4-3-3.2-3.3-3.2-.3-3.3-.2-3.3 3.3zM460 385.4c0 3.3.2 3.6 3 3.6 1.7 0 3.1-.3 3.1-.8.8-4.8.3-5.7-2.8-6-3.2-.3-3.3-.2-3.3 3.2zM513.8 384.3c-.7 3.5.1 4.7 3.3 4.7 2.7 0 2.9-.3 2.9-3.5s-.3-3.5-2.9-3.5c-2.2 0-3 .5-3.3 2.3zM522.7 382.7c-.3.5-.5 2-.5 3.4 0 2.4.4 2.7 3.4 2.7 3.2 0 3.4-.2 3.4-3.4 0-3.1-.3-3.4-2.9-3.4-1.7 0-3.2.3-3.4.7zM531.4 385.2c.1 3 .5 3.3 3.4 3.6 3.1.3 3.2.2 3.2-3.2 0-3.4-.2-3.6-3.4-3.6-3.1 0-3.3.2-3.2 3.2zM585 385.5c0 3.5.1 3.6 3.2 3.3 2.9-.3 3.3-.6 3.3-3.3 0-2.7-.4-3-3.2-3.3-3.2-.3-3.3-.2-3.3 3.3zM594 385.5c0 3.5.1 3.6 3.2 3.3 2.9-.3 3.3-.6 3.3-3.3 0-2.7-.4-3-3.2-3.3-3.2-.3-3.3-.2-3.3 3.3zM603 385.5c0 3.5.1 3.6 3.3 3.3 2.8-.3 3.2-.6 3.2-3.3 0-2.7-.4-3-3.2-3.3-3.2-.3-3.3-.2-3.3 3.3zM11 394.6c0 3.4.1 3.5 3.2 3.2 2.9-.3 3.3-.6 3.4-3.6.1-3-.1-3.2-3.2-3.2-3.2 0-3.4.2-3.4 3.6zM20 394.6c0 3.4.1 3.5 3.2 3.2 5.1-.5 4.9-6.8-.3-6.8-2.7 0-2.9.3-2.9 3.6zM28.9 391.9c-.1.6-.1 1.8-.1 2.6 0 3.1.3 3.5 3.2 3.5 1.9 0 3-.5 3.1-1.5.1-.8.2-2.3.3-3.3.1-1.2-.8-1.8-3.1-2-1.8-.2-3.4.2-3.4.7zM82.7 391.7c-.2.5-.3 1.9-.3 3.3.1 2.1.7 2.6 3.4 2.8 3.1.3 3.2.2 3.2-3.2 0-3.3-.2-3.6-2.9-3.6-1.7 0-3.2.3-3.4.7zM91.7 391.7c-.2.5-.3 1.9-.3 3.3.1 2.1.7 2.6 3.4 2.8 3.1.3 3.2.2 3.2-3.2 0-3.3-.2-3.6-2.9-3.6-1.7 0-3.2.3-3.4.7zM100 394.5c0 3.3.2 3.5 3.5 3.5s3.5-.2 3.5-3.5-.2-3.5-3.5-3.5-3.5.2-3.5 3.5zM118.2 394.6c0 3.3.1 3.5 3.2 3.2 2.7-.3 3.1-.7 3.4-3.6.3-3.1.2-3.2-3.1-3.2-3.3 0-3.5.2-3.5 3.6zM127 394.5c0 3.5.1 3.6 3.3 3.3 2.8-.3 3.2-.6 3.2-3.3-.1-2.6-.5-3-3.3-3.3-3.1-.3-3.2-.2-3.2 3.3zM136 394.4c0 3.4.2 3.6 3.3 3.6 3.1 0 3.3-.2 3.2-3.3-.1-2.8-.5-3.2-3.3-3.5-3.1-.3-3.2-.2-3.2 3.2zM243.7 391.7c-.4.3-.7 1.9-.7 3.5 0 2.5.3 2.8 3.5 2.8 3.3 0 3.5-.2 3.5-3.5 0-3.2-.3-3.5-2.8-3.5-1.6 0-3.2.3-3.5.7zM252 394.6c0 3.4.1 3.5 3.2 3.2 2.9-.3 3.3-.6 3.4-3.6.1-3-.1-3.2-3.2-3.2-3.2 0-3.4.2-3.4 3.6zM261 394.6c0 3.4.1 3.5 3.2 3.2 5.1-.5 4.9-6.8-.3-6.8-2.7 0-2.9.3-2.9 3.6zM270 394.5c0 3.5.1 3.6 3.3 3.3 2.8-.3 3.2-.6 3.2-3.3 0-2.7-.4-3-3.2-3.3-3.2-.3-3.3-.2-3.3 3.3zM279 394.5c0 3.3.2 3.5 3.3 3.5 3 0 3.2-.2 3.3-3.5.1-3.3-.1-3.5-3.3-3.5-3.1 0-3.3.2-3.3 3.5zM288 394.5c0 3.2.3 3.5 2.9 3.5 2.2 0 3-.5 3.3-2.3.7-3.5-.1-4.7-3.3-4.7-2.6 0-2.9.3-2.9 3.5zM296.8 392.7c-.8 3.5.2 5.3 3.2 5.3 1.9 0 3-.6 3.2-1.8.8-3.4-.3-5.2-3.2-5.2-1.8 0-2.9.6-3.2 1.7zM335 394.6c0 3.4.1 3.5 3.3 3.2 3.1-.3 3.6-1.2 2.8-6.1 0-.4-1.4-.7-3.1-.7-2.8 0-3 .3-3 3.6zM344 394.6c0 3.4.1 3.5 3.2 3.2 2.9-.3 3.3-.6 3.4-3.6.1-3-.1-3.2-3.2-3.2-3.2 0-3.4.2-3.4 3.6zM352.8 392.7c-.8 3.5.3 5.3 3.2 5.3 2.1 0 2.9-.6 3.2-2.3.7-3.5-.1-4.7-3.2-4.7-1.8 0-2.9.6-3.2 1.7zM406.8 391.7c-.2.5-.3 1.9-.3 3.3 0 2.1.5 2.6 3.3 2.8 3.1.3 3.2.2 3.2-3.2 0-3.3-.2-3.6-2.9-3.6-1.7 0-3.1.3-3.3.7zM415.4 394.2c.2 2.9.6 3.3 3.4 3.6 3.1.3 3.2.2 3.2-3.2 0-3.4-.2-3.6-3.4-3.6-3.3 0-3.4.2-3.2 3.2zM424.2 394.2c.3 2.9.6 3.3 3.3 3.3 2.7 0 3-.4 3.3-3.3.3-3.1.2-3.2-3.3-3.2s-3.6.1-3.3 3.2zM442 394.6c0 3.4.1 3.5 3.3 3.2 2.8-.3 3.2-.7 3.5-3.6.3-3.1.2-3.2-3.2-3.2-3.5 0-3.6.1-3.6 3.6zM451 394.6c0 3.4.1 3.5 3.3 3.2 2.9-.3 3.2-.6 3.3-3.6 0-3-.2-3.2-3.3-3.2-3.1 0-3.3.2-3.3 3.6zM460 394.5c0 3.3.2 3.5 3.3 3.5 3 0 3.2-.2 3.3-3.5.1-3.3 0-3.5-3.2-3.5s-3.4.2-3.4 3.5zM513.8 392.7c-.8 3.6.2 5.3 3.3 5.3 2.7 0 2.9-.3 2.9-3.5s-.3-3.5-2.9-3.5c-1.9 0-3 .6-3.3 1.7zM522.8 391.7c-.2.5-.3 1.9-.3 3.3 0 2.1.5 2.6 3.3 2.8 3.1.3 3.2.2 3.2-3.2 0-3.3-.2-3.6-2.9-3.6-1.7 0-3.1.3-3.3.7zM531.7 391.7c-.2.5-.3 1.9-.3 3.3.1 2.1.7 2.6 3.4 2.8 3.1.3 3.2.2 3.2-3.2 0-3.3-.2-3.6-2.9-3.6-1.7 0-3.2.3-3.4.7zM585 394.6c0 3.4.1 3.5 3.2 3.2 2.9-.3 3.3-.6 3.4-3.6.1-3-.1-3.2-3.2-3.2-3.2 0-3.4.2-3.4 3.6zM594 394.6c0 3.4.1 3.5 3.2 3.2 2.9-.3 3.3-.6 3.4-3.6.1-3-.1-3.2-3.2-3.2-3.2 0-3.4.2-3.4 3.6zM603 394.5c0 3.5.1 3.6 3.3 3.3 2.8-.3 3.2-.6 3.2-3.3 0-2.7-.4-3-3.2-3.3-3.2-.3-3.3-.2-3.3 3.3zM11 403.4c0 3.3.2 3.6 2.9 3.6 5.2 0 5.4-6.3.3-6.8-3.1-.3-3.2-.2-3.2 3.2zM20 403.5c0 3.5.1 3.6 3.3 3.3 2.8-.3 3.2-.6 3.2-3.3 0-2.7-.4-3-3.2-3.3-3.2-.3-3.3-.2-3.3 3.3zM28.8 401.7c-.8 3.5.2 5.3 3.2 5.3 3.1 0 3.9-1.2 3.2-4.7-.5-2.9-5.7-3.3-6.4-.6zM37.9 400.4c-.1.3-.1 1.5-.1 2.6 0 3.7.2 4 3.5 4 3 0 3.2-.2 3.1-3.2-.1-2.9-.4-3.3-3.2-3.6-1.8-.2-3.2-.1-3.3.2zM46.8 401.7c-.8 3.5.2 5.3 3.2 5.3 1.9 0 3-.6 3.2-1.8.8-3.4-.3-5.2-3.2-5.2-1.8 0-2.9.6-3.2 1.7zM55.9 400.5c-.1.3-.1 1.7-.2 3.2-.1 2.4.3 2.8 3.1 3.1 3.1.3 3.2.2 3.2-3.2 0-3.3-.2-3.6-3-3.6-1.6 0-3 .2-3.1.5zM64.9 400.2c-.1.2-.2 1.8-.4 3.5-.2 3.1 0 3.3 3.1 3.3 3.2 0 3.4-.2 3.4-3.5 0-3.2-.2-3.5-3-3.5-1.6 0-3.1.1-3.1.2zM73.4 402.4c-.8 3.4.2 4.6 3.7 4.6 2.7 0 2.9-.3 2.9-3.5s-.2-3.5-3-3.5c-2.3 0-3.1.5-3.6 2.4zM82.6 400.8c-.3.5-.3 1.7-.1 2.8.2 1 .4 2.2.4 2.6.1.5 1.5.8 3.1.8 2.8 0 3-.3 3-3.5s-.2-3.5-2.9-3.5c-1.7 0-3.2.4-3.5.8zM91.7 400.7c-.2.5-.3 1.9-.3 3.3.1 2.1.7 2.6 3.3 2.8 3 .3 3.1.1 3.1-3.2 0-3.3-.3-3.6-2.8-3.6-1.6 0-3.1.3-3.3.7zM100.2 403.5c.1 3.3.3 3.5 3.5 3.5 3.1 0 3.3-.2 3.3-3.3 0-3.2-.2-3.4-3.5-3.5-3.3-.1-3.4 0-3.3 3.3zM118 403.6c0 3.2.2 3.4 3.5 3.4s3.5-.2 3.5-3.4c0-3.2-.2-3.4-3.5-3.4s-3.5.2-3.5 3.4zM127 403.5c0 3.5.1 3.6 3.2 3.3 2.8-.3 3.2-.7 3.3-3.3 0-2.7-.4-3-3.2-3.3-3.2-.3-3.3-.2-3.3 3.3zM136 403.5c0 3.5.1 3.6 3.2 3.3 2.9-.3 3.3-.6 3.3-3.3 0-2.7-.4-3-3.2-3.3-3.2-.3-3.3-.2-3.3 3.3zM145 403.6c0 3.4.1 3.5 3.2 3.2 2.9-.3 3.3-.6 3.4-3.6.1-3-.1-3.2-3.2-3.2-3.2 0-3.4.2-3.4 3.6zM154 403.5c0 3.2.3 3.5 2.9 3.5 2.2 0 3-.5 3.3-2.3.7-3.5-.1-4.7-3.3-4.7-2.6 0-2.9.3-2.9 3.5zM162.8 403c-.5 3.6-.2 4 3.3 4 1.8 0 2.9-.6 3.1-1.8.8-3.4-.3-5.2-3.2-5.2-2.3 0-2.8.5-3.2 3zM171.9 400.4c-.1.3-.1 1.8-.2 3.3-.1 2.5.2 2.8 3.3 2.8 3.1 0 3.4-.3 3.4-3 0-2.6-.4-3-3.2-3.3-1.8-.2-3.2-.1-3.3.2zM180.8 401.7c-.8 3.5.2 5.3 3.2 5.3 3.1 0 3.9-1.2 3.2-4.7-.5-2.9-5.7-3.3-6.4-.6zM189.9 400.5c-.1.3-.1 1.4-.1 2.5 0 3.7.2 4 3.2 4 2.8 0 3-.3 3-3.5s-.2-3.5-3-3.5c-1.6 0-3 .2-3.1.5zM198.7 400.7c-.3.7-.3 1.5.1 5 .1.7 1.5 1.3 3.2 1.3 2.8 0 3-.3 3-3.5s-.2-3.5-2.9-3.5c-1.7 0-3.2.3-3.4.7zM207.7 401.4c-1.2 3.1 0 5.1 3.1 5.4 3.1.3 3.2.2 3.2-3.2 0-3.3-.2-3.6-2.9-3.6-1.6 0-3.1.6-3.4 1.4zM252.2 403.5c.1 3.4.3 3.6 3.2 3.3 2.7-.3 3.1-.7 3.1-3.3 0-2.6-.4-3-3.2-3.3-3.1-.3-3.2-.2-3.1 3.3zM261 403.5c0 3.5.1 3.6 3.3 3.3 2.8-.3 3.2-.6 3.2-3.3 0-2.7-.4-3-3.2-3.3-3.2-.3-3.3-.2-3.3 3.3zM270 403.4c0 3.4.2 3.6 3.4 3.6 3.1 0 3.3-.2 3.2-3.3-.1-2.9-.5-3.2-3.4-3.5-3.1-.3-3.2-.2-3.2 3.2zM279 403.5c0 3.2.3 3.5 2.9 3.5 3.1 0 4.5-2 3.6-5.1-.4-1.3-1.6-1.9-3.6-1.9-2.7 0-2.9.3-2.9 3.5zM288 403.5c0 3.2.3 3.5 2.9 3.5 2.2 0 3-.5 3.3-2.3.7-3.5-.1-4.7-3.3-4.7-2.6 0-2.9.3-2.9 3.5zM335 403.5c0 3.5.1 3.6 3.2 3.3 2.8-.3 3.2-.7 3.3-3.3 0-2.7-.4-3-3.2-3.3-3.2-.3-3.3-.2-3.3 3.3zM344 403.5c0 3.5.1 3.6 3.2 3.3 2.9-.3 3.3-.6 3.3-3.3 0-2.7-.4-3-3.2-3.3-3.2-.3-3.3-.2-3.3 3.3zM352.7 400.7c-.2.5-.2 1.4-.1 2 .1.7.2 2 .3 2.8.2 2.2 5.8 2 6.3-.3.8-3.4-.3-5.2-3.3-5.2-1.5 0-3 .3-3.2.7zM361.9 400.2c0 .2-.1 1.8-.2 3.6-.2 3 0 3.2 3.1 3.2 1.7 0 3.3-.5 3.3-1 .6-5 .3-5.5-2.9-5.8-1.7-.2-3.2-.2-3.3 0zM370.8 401.7c-.9 3.8.2 5.4 3.5 5.1 2.3-.2 3.2-.8 3.1-2.1-.1-.9-.2-2.4-.3-3.2-.2-2.2-5.7-2-6.3.2zM379.9 400.5c-.1.3-.1 1.4-.1 2.5 0 3.7.2 4 3.2 4 2.8 0 3-.3 3-3.5s-.2-3.5-3-3.5c-1.6 0-3 .2-3.1.5zM388.7 400.7c-.2.5-.3 1.9-.3 3.3.1 2.1.7 2.6 3.4 2.8 3.1.3 3.2.2 3.2-3.2 0-3.3-.2-3.6-2.9-3.6-1.7 0-3.2.3-3.4.7zM397.7 400.7c-.3.5-.4 1.9-.3 3.3.1 2.1.7 2.6 3.4 2.8 3.1.3 3.2.2 3.2-3.2 0-3.3-.2-3.6-2.9-3.6-1.7 0-3.2.3-3.4.7zM406.5 403.2c.1 2.9.5 3.3 3.3 3.6 3.1.3 3.2.2 3.2-3.2 0-3.4-.2-3.6-3.3-3.6-3.1 0-3.3.2-3.2 3.2zM415.9 400.2c-.1.2-.2 1.8-.3 3.6-.2 3.1-.1 3.3 2.8 3 2.7-.3 3.1-.7 3.1-3.3 0-2.5-.4-3-2.7-3.3-1.6-.2-2.9-.2-2.9 0zM424.2 403.3c.3 2.8.7 3.2 3.6 3.5 3.1.3 3.2.2 3.2-3.1 0-3.3-.2-3.5-3.6-3.5-3.3 0-3.5.1-3.2 3.1zM442 403.6c0 3.4.1 3.5 3.3 3.2 2.8-.3 3.2-.7 3.5-3.6.3-3.1.2-3.2-3.2-3.2-3.5 0-3.6.1-3.6 3.6zM451 403.5c0 3.5.1 3.6 3.3 3.3 2.8-.3 3.2-.6 3.2-3.3 0-2.7-.4-3-3.3-3.3-3.1-.3-3.2-.2-3.2 3.3zM460 403.5c0 3.5.1 3.6 3.3 3.3 2.8-.3 3.2-.6 3.2-3.3 0-2.7-.4-3-3.2-3.3-3.2-.3-3.3-.2-3.3 3.3zM513.9 401c-.1.5-.1 1.7-.1 2.5 0 3.1.3 3.5 3.2 3.5 2.8 0 3-.3 3-3.5s-.2-3.5-3-3.5c-1.6 0-3.1.4-3.1 1zM522.7 400.7c-.2.5-.3 1.9-.3 3.3.1 2.1.7 2.6 3.4 2.8 3.1.3 3.2.2 3.2-3.2 0-3.3-.2-3.6-2.9-3.6-1.7 0-3.2.3-3.4.7zM531.8 400.7c0 .5-.2 2-.3 3.5-.2 2.5.1 2.8 3.1 2.8 3.2 0 3.4-.2 3.4-3.5 0-3.2-.2-3.5-3-3.5-1.6 0-3.1.3-3.2.7zM585 403.6c0 3.4.1 3.5 3.2 3.2 2.9-.3 3.3-.6 3.4-3.6.1-3-.1-3.2-3.2-3.2-3.2 0-3.4.2-3.4 3.6zM594 403.4c0 3.3.2 3.6 2.9 3.6 5.2 0 5.4-6.3.3-6.8-3.1-.3-3.2-.2-3.2 3.2zM603 403.5c0 3.5.1 3.6 3.3 3.3 2.8-.3 3.2-.6 3.2-3.3 0-2.7-.4-3-3.3-3.3-3.1-.3-3.2-.2-3.2 3.3zM664.8 400.8c-1.2.2-1.8 1.3-1.8 3.2 0 3.1 1.2 3.9 4.7 3.2 1.7-.3 2.3-1.1 2.3-3.2 0-2.9-1.8-4-5.2-3.2zM673.8 400.8c-2.1.4-2.6 6.2-.5 6.3.6 0 2 .2 2.9.4 1.9.3 2.8-1.4 2.3-4.1-.2-1.1-.4-2.2-.4-2.5-.1-.6-1.7-.7-4.3-.1zM681 403.6c0 3.4 1.3 4.4 4.5 3.5 1.8-.5 2.3-2.1 1.6-5.9 0-.4-1.4-.7-3.1-.7-2.7-.1-3 .2-3 3.1zM691.1 400.8c-1.2.4-1.5 6.2-.3 6.3.4 0 1.5.2 2.4.4 2.2.4 3.8-1.5 3.3-4-.2-1.1-.4-2.2-.4-2.5-.1-.6-3.3-.8-5-.2zM699 403.5c0 3.5 1.3 4.5 4.5 3.6 2.5-.8 3.1-6.1.6-6.2-.9 0-2.4-.2-3.3-.4-1.4-.3-1.8.4-1.8 3zM708.3 401.6c-1 2.8.2 5.7 2.5 5.9 2.8.2 4.7-2.8 3.4-5.2-1.2-2-5.2-2.5-5.9-.7zM11 412.4c0 3.1.2 3.3 3.2 3.2 2.9-.1 3.3-.5 3.4-3.4.2-3 0-3.2-3.2-3.2s-3.4.2-3.4 3.4zM20 412.4c0 3.1.2 3.3 3.2 3.2 2.8-.1 3.2-.5 3.4-3.4.2-3 .1-3.2-3.2-3.2-3.2 0-3.4.2-3.4 3.4zM28.8 410.2c-1 3 .7 5.4 3.7 5.3 3 0 3 0 2.6-5-.1-1.9-5.7-2.1-6.3-.3zM37.6 411.2c.1 1.3.3 2.8.3 3.4.1.6 1.5 1.1 3.3 1 2.9-.1 3.2-.5 3.2-3.1 0-2.7-.3-3-3.5-3.3-3.2-.3-3.5-.1-3.3 2zM46.7 409.7c-.2.5-.2 1.4-.1 2 .1.7.2 1.9.3 2.7.2 2 5.5 1.5 6.3-.6 1.2-2.9-.2-4.8-3.2-4.8-1.6 0-3.1.3-3.3.7zM55.5 412.4c0 3.1.2 3.3 3.3 3.3 2.9-.1 3.2-.4 3.2-3.4 0-3.1-.2-3.3-3.2-3.3-3.1 0-3.3.2-3.3 3.4zM64.4 411.7c.2 1.6.4 3.1.5 3.4 0 .4 1.5.6 3.1.5 2.7-.1 3-.4 3-3.3 0-3.1-.2-3.3-3.4-3.3-3.2 0-3.5.2-3.2 2.7zM73.4 412.2c.1 3 .5 3.3 3.1 3.3 2.7 0 3-.4 3.3-3.3.3-3 .2-3.2-3.1-3.2-3.2 0-3.4.2-3.3 3.2zM82.4 412c-.1 1.6.1 3 .5 3.1 5.6.9 6.1.6 6.1-2.8 0-3.1-.2-3.3-3.3-3.3-2.9 0-3.2.3-3.3 3zM91.4 412.2c.2 2.9.6 3.3 3.2 3.3 2.5 0 2.9-.4 3.2-3.3.3-3.1.2-3.2-3.2-3.2-3.3 0-3.4.2-3.2 3.2zM118.2 412.2c.3 2.9.6 3.3 3.3 3.3 2.7 0 3-.4 3.3-3.3.3-3.1.2-3.2-3.3-3.2s-3.6.1-3.3 3.2zM127 412.4c0 3.3.2 3.4 3.3 3.2 2.9-.2 3.2-.6 3.3-3.4 0-3-.2-3.2-3.3-3.2-3.1 0-3.3.2-3.3 3.4zM136 412.4c0 3.5.6 3.8 6.1 2.7.3 0 .5-1.5.5-3.1 0-2.7-.3-3-3.3-3-3.1 0-3.3.2-3.3 3.4zM145 412.4c0 3.3.2 3.4 3.2 3.2 2.8-.2 3.2-.6 3.4-3.4.2-3 .1-3.2-3.2-3.2-3.2 0-3.4.2-3.4 3.4zM154 412.4c0 3.2.2 3.4 3.1 3.2 2.8-.2 3.2-.6 3.4-3.4.3-3 .1-3.2-3.1-3.2s-3.4.2-3.4 3.4zM162.8 410.7c-.8 3.5.2 5.1 3.3 4.9 2.9-.1 3.2-.3 3.2-3.1 0-3.1-.4-3.5-3.2-3.5-1.9 0-3 .6-3.3 1.7zM171.6 411.7c.1 1.6.3 3.1.3 3.4.1.8 4.3.5 5.8-.4.6-.4 1-1.5.8-2.5-.2-.9-.4-2-.4-2.5-.1-.4-1.6-.7-3.4-.7-2.9 0-3.2.3-3.1 2.7zM180.9 409.5c-.1.3-.1 1.7-.2 3.2-.1 2.4.3 2.8 2.8 2.8 3 .1 4.7-2.4 3.7-5.3-.4-1.1-6.1-1.8-6.3-.7zM189.7 409.7c-.2.5-.2 1.4-.1 2 .1.7.2 1.9.3 2.7.1.9 1.2 1.3 3.1 1.2 2.7-.1 3-.4 3-3.3 0-3-.3-3.3-2.9-3.3-1.7 0-3.2.3-3.4.7zM198.4 412.2c.1 3 .4 3.3 3.4 3.4 3 0 3.2-.2 3.2-3.3 0-3.1-.2-3.3-3.4-3.3-3.1 0-3.3.2-3.2 3.2zM207.4 412.2c.1 3 .4 3.3 3.4 3.4 3 0 3.2-.2 3.2-3.3 0-3.1-.2-3.3-3.4-3.3-3.1 0-3.3.2-3.2 3.2zM261.2 412.2c.3 2.9.6 3.3 3.3 3.3 2.6 0 3-.3 3.1-3.3.1-3-.1-3.2-3.3-3.2-3.3 0-3.4.2-3.1 3.2zM270.2 412.2c.3 2.9.6 3.3 3.3 3.3 2.6 0 3-.3 3.1-3.3.1-3-.1-3.2-3.3-3.2-3.3 0-3.4.2-3.1 3.2zM279.2 412.2c.3 2.9.7 3.3 3.2 3.3 2.6 0 3-.4 3.2-3.3.2-3 .1-3.2-3.2-3.2-3.4 0-3.5.1-3.2 3.2zM335 412.4c0 3.3.2 3.4 3.3 3.2 2.9-.2 3.2-.6 3.3-3.4 0-3-.2-3.2-3.3-3.2-3.1 0-3.3.2-3.3 3.4zM344 412.4c0 3.3.2 3.4 3.2 3.2 2.9-.2 3.3-.6 3.4-3.4.1-3-.1-3.2-3.2-3.2-3.2 0-3.4.2-3.4 3.4zM352.9 409.5c-.1.3-.1 1.4-.1 2.5 0 3.5.1 3.7 3.4 3.6 2.9-.1 3.2-.4 3.3-3.4.1-3-.2-3.2-3.2-3.2-1.8 0-3.3.2-3.4.5zM361.7 409.7c-.2.5-.2 1.4-.1 2 .1.7.2 1.9.3 2.7.1 1.4 6.1 1.7 6.1.3v-3.2c0-2.1-.5-2.5-2.9-2.5-1.7 0-3.2.3-3.4.7zM370.5 411.2c.1 1.3.3 2.8.4 3.4 0 .6 1.6 1.1 3.3 1 3.3-.1 3.5-.6 2.9-5.6 0-.6-1.6-1-3.5-1-2.9 0-3.3.3-3.1 2.2zM379.7 409.7c-.2.5-.2 1.4-.1 2 .1.7.2 1.9.3 2.6 0 .8 1.3 1.3 3.1 1.3 2.7 0 3-.3 3-3.3s-.3-3.3-2.9-3.3c-1.7 0-3.2.3-3.4.7zM388.4 412.2c.2 2.9.6 3.3 3.4 3.4 3 .1 3.2-.1 3.2-3.2 0-3.2-.2-3.4-3.4-3.4-3.3 0-3.4.2-3.2 3.2zM397.4 412.2c.1 3 .4 3.3 3.4 3.4 3 .1 3.2-.1 3.2-3.2 0-3.2-.2-3.4-3.3-3.4-3.1 0-3.3.2-3.3 3.2zM406.4 412.2c.1 2.9.5 3.3 3.4 3.4 3 .1 3.2-.1 3.2-3.2 0-3.2-.2-3.4-3.4-3.4-3.1 0-3.3.2-3.2 3.2zM415.4 412.2c.2 2.9.6 3.3 3.2 3.3 2.5 0 2.9-.4 3.2-3.3.3-3.1.2-3.2-3.2-3.2-3.3 0-3.4.2-3.2 3.2zM442.2 412.2c.3 2.9.6 3.3 3.3 3.3 2.7 0 3-.4 3.3-3.3.3-3.1.2-3.2-3.3-3.2s-3.6.1-3.3 3.2zM451 412.4c0 3.3.2 3.4 3.2 3.2 2.9-.2 3.3-.6 3.4-3.4.1-3-.1-3.2-3.2-3.2-3.2 0-3.4.2-3.4 3.4zM460 412.3c0 3.4.5 3.7 6.1 2.8.4-.1.6-1.5.5-3.1-.1-2.7-.4-3-3.3-3-3.1 0-3.3.2-3.3 3.3zM513.7 409.7c-.2.5-.2 1.4-.1 2 .1.7.2 1.9.3 2.7.1.9 1.2 1.3 3.1 1.2 2.7-.1 3-.4 3-3.3 0-3-.3-3.3-2.9-3.3-1.7 0-3.2.3-3.4.7zM522.4 412.2c.1 3 .4 3.3 3.4 3.4 3 0 3.2-.2 3.2-3.3 0-3.1-.2-3.3-3.4-3.3-3.1 0-3.3.2-3.2 3.2zM531.4 412.2c.1 3 .4 3.3 3.4 3.4 3 0 3.2-.2 3.2-3.3 0-3.1-.2-3.3-3.4-3.3-3.1 0-3.3.2-3.2 3.2zM585.2 412.2c.3 2.9.6 3.3 3.3 3.3 2.6 0 3-.3 3.1-3.3.1-3-.1-3.2-3.3-3.2-3.3 0-3.4.2-3.1 3.2zM594.2 412.2c.3 2.9.7 3.3 3.2 3.3 2.6 0 3-.4 3.2-3.3.2-3 .1-3.2-3.2-3.2-3.4 0-3.5.1-3.2 3.2zM603.2 412.2c.3 2.9.6 3.3 3.3 3.3 2.6 0 3-.3 3.1-3.3.1-3-.1-3.2-3.3-3.2-3.3 0-3.4.2-3.1 3.2zM663.5 409.8c-.3.3-.5 1.8-.5 3.4 0 2.5.3 2.8 3.6 2.8 3.4 0 3.5-.1 3.2-3.3-.3-2.7-.7-3.2-3-3.3-1.5-.1-3 .1-3.3.4zM673.3 409.7c-.7.2-1.3 1.8-1.3 3.4 0 2.8.3 3 3.2 2.7 2.1-.2 3.2-.9 3.4-2.2.6-3.9-1.5-5.5-5.3-3.9zM681 412.7c0 3.3.2 3.4 3.3 3.1 2.8-.3 3.2-.6 3.2-3.3 0-2.6-.3-3-3.2-3.1-3.1-.1-3.3.1-3.3 3.3zM690 412.8c0 3.2.2 3.3 3.3 3 2.8-.3 3.2-.7 3.2-3.3 0-2.6-.3-2.9-3.2-3-3.1-.1-3.3.1-3.3 3.3zM699 412.6c0 3.2.2 3.4 3.3 3.4 3.1 0 3.3-.2 3.2-3.3-.1-2.9-.5-3.2-3.3-3.4-3-.1-3.2.1-3.2 3.3zM708 412.7c0 3 .3 3.3 2.9 3.3 2.1 0 3-.6 3.4-2.1.9-3.2-.1-4.5-3.3-4.5-2.7 0-3 .3-3 3.3zM11 421.3c0 3.1.2 3.3 3.3 3.3 2.9-.1 3.2-.4 3.2-3.1s-.4-3-3.2-3.3c-3.1-.3-3.3-.2-3.3 3.1zM20 421.3c0 3 .3 3.3 3 3.2 1.7 0 3.1-.2 3.1-.5.1-.3.3-1.7.5-3.3.3-2.5 0-2.7-3.2-2.7s-3.4.2-3.4 3.3zM28.6 420.7c.1 1.6.3 3 .3 3.3.2 1 5.6.7 6.2-.2.3-.5.4-2 .1-3.4-.3-1.9-1-2.4-3.6-2.4-2.8 0-3.1.3-3 2.7zM37.6 420.7c.7 3.7 1.2 4.3 3.4 4 2.6-.4 3.3-1.3 3.5-4.2.1-2.2-.3-2.5-3.7-2.5-3.4 0-3.6.2-3.2 2.7zM46.8 419.2c-.3.7-.3 2.2 0 3.4.4 2.1 2 2.5 6.2 1.5.3 0 .5-1.5.5-3.1.1-2.7-.2-3-3.1-3-1.8 0-3.4.5-3.6 1.2zM55.8 420.5c-.6 2.8.5 3.9 4 4.1 1.9.1 2.2-.4 2.2-3.3 0-3-.3-3.3-2.9-3.3-2.3 0-3 .5-3.3 2.5zM64.4 420.7c.2 1.6.4 3.1.5 3.5 0 .4 1.3.6 2.9.5 2.3-.2 2.7-.7 3-3.5.3-3.1.2-3.2-3.2-3.2-3.2 0-3.5.2-3.2 2.7zM73.5 421.2c.1 3 .4 3.3 3 3.3s3-.4 3.3-3.3c.3-3 .2-3.2-3-3.2s-3.4.2-3.3 3.2zM82.5 419.2c-1.1 3.2.2 5.3 3.3 5.4 3 .1 3.2-.1 3.2-3.2s-.3-3.4-3-3.4c-1.7 0-3.3.6-3.5 1.2zM118.2 421.2c.3 3 .6 3.3 3.6 3.4 3 0 3.2-.2 3.2-3.3 0-3.1-.2-3.3-3.6-3.3s-3.5.1-3.2 3.2zM127 421.3c0 3 .3 3.4 2.5 3.4 5.3 0 6-6 .7-6.5-3-.3-3.2-.1-3.2 3.1zM136 421.3c0 3 .3 3.3 3 3.3 1.7 0 3.1-.2 3.1-.5 1.1-5.5.8-6.1-2.7-6.1-3.2 0-3.4.2-3.4 3.3zM145 421.3c0 3 .3 3.3 3 3.3 1.7 0 3-.2 3.1-.5.9-5.4.6-6.1-2.8-6.1-3.1 0-3.3.2-3.3 3.3zM154 421.3c0 3.1.2 3.3 3.2 3.3 3.3-.1 3.5-.5 2.9-5.6 0-.6-1.4-1-3.1-1-2.7 0-3 .3-3 3.3zM162.6 420.7c.1 1.6.3 3 .3 3.3.1.3 1.4.6 3 .6 2.2.1 3-.3 3.3-2 .7-3.5-.2-4.6-3.6-4.6-2.8 0-3.1.3-3 2.7zM171.6 420.7c.1 1.5.3 3.1.3 3.4.2 1.2 5.3.3 6-1.1 1.5-3.1.6-4.5-2.9-4.8-3.4-.3-3.6-.1-3.4 2.5zM180.8 420.4c-.7 3.3.2 4.4 3.2 4.2 4.8-.2 4.8-6.6 0-6.6-2.1 0-2.9.6-3.2 2.4zM189.9 418.5c-.1.3-.1 1.4-.1 2.5 0 3.4.1 3.5 3.2 3.5 2.7.1 3-.2 3-3.2s-.3-3.3-3-3.3c-1.6 0-3 .2-3.1.5zM198.6 420.7c.1 1.6.2 3.1.3 3.4 0 .4 1.5.6 3.1.5 2.7-.1 3-.4 3-3.3 0-3.1-.2-3.3-3.3-3.3-3 0-3.3.3-3.1 2.7zM207.6 420.7c.1 1.6.2 3.1.3 3.4.1.3 1.5.5 3.1.5 2.7 0 3-.3 3-3.3 0-3.1-.2-3.3-3.3-3.3-3.1 0-3.4.2-3.1 2.7zM270 421.3c0 3.2.2 3.4 3.2 3.3 2.9-.1 3.3-.5 3.3-3.1 0-2.7-.4-3-3.2-3.3-3.1-.3-3.3-.2-3.3 3.1zM335 421.3c0 3.1.2 3.3 3.1 3.3 2.8-.1 3.2-.5 3.5-3.4.4-3.1.2-3.2-3.1-3.2-3.3 0-3.5.2-3.5 3.3zM344 421.3c0 3.1.2 3.3 3.2 3.3 2.8-.1 3.2-.5 3.5-3.4.4-3.1.3-3.2-3.1-3.2s-3.6.2-3.6 3.3zM352.6 420.7c.1 1.6.3 3.1.3 3.4.2 1.2 6.1.8 6.2-.4 0-.7.2-2.2.3-3.5.2-1.9-.2-2.2-3.4-2.2-3.3 0-3.5.2-3.4 2.7zM361.5 420.7c0 3.4.8 4 4.3 3.8 2.2-.1 2.6-.6 2.7-3 0-2.7-.3-3-3.5-3.3-3.3-.3-3.6-.1-3.5 2.5zM370.8 420.4c-.6 3.2.2 4.4 3 4.2 4.8-.2 5.1-6.6.2-6.6-2.1 0-2.9.6-3.2 2.4zM379.9 419c-.1.5-.1 1.7-.1 2.5 0 2.9.2 3.1 3.2 3.1 2.7 0 3-.3 3-3.3s-.3-3.3-3-3.3c-1.6 0-3.1.4-3.1 1zM388.5 419.2c-1.1 3.2.2 5.3 3.3 5.4 3 .1 3.2-.1 3.2-3.2s-.3-3.4-3-3.4c-1.7 0-3.3.6-3.5 1.2zM397.7 418.7c-.2.5-.3 1.9-.3 3.2.1 2 .7 2.5 3.4 2.7 3 .2 3.2.1 3.2-3.2 0-3.1-.3-3.4-2.9-3.4-1.7 0-3.2.3-3.4.7zM406.5 421.2c.1 2.8.5 3.2 3.3 3.4 3 .2 3.2.1 3.2-3.2 0-3.2-.2-3.4-3.3-3.4-3.1 0-3.3.2-3.2 3.2zM442.2 421.2c.3 2.9.6 3.3 3.3 3.3 2.7 0 3-.4 3.3-3.3.3-3.1.2-3.2-3.3-3.2s-3.6.1-3.3 3.2zM451 421.3c0 3.1.2 3.3 3.2 3.3 2.9-.1 3.2-.4 3.3-3.4.1-3-.1-3.2-3.2-3.2s-3.3.2-3.3 3.3zM460 421.3c0 3.4.6 3.7 6.1 2.8.3-.1.6-1.3.5-2.9-.1-2.3-.6-2.7-3.3-3-3.1-.3-3.3-.2-3.3 3.1zM513.6 420.7c.1 1.6.3 3.1.3 3.5.1.4 1.3.6 2.9.5 2.3-.2 2.7-.7 3-3.5.3-3 .2-3.2-3-3.2-3.1 0-3.3.3-3.2 2.7zM522.4 420.7c.2 1.6.4 3 .5 3.3 0 .3 1.5.6 3.1.6 2.8.2 3-.1 3-3.2 0-3.2-.2-3.4-3.4-3.4-3.2 0-3.5.2-3.2 2.7zM531.7 418.7c-.3.5-.4 1.9-.3 3.3.1 2 .6 2.5 3.4 2.6 3 .1 3.2-.1 3.2-3.2s-.3-3.4-2.9-3.4c-1.7 0-3.2.3-3.4.7zM585 421.4c0 2.9.3 3.3 2.5 3.3 2.8 0 3.9-1.1 4.1-4.5.1-1.9-.4-2.2-3.3-2.2-3.1 0-3.3.2-3.3 3.4zM594 421.4c0 3.5.6 3.8 6.1 2.7.3 0 .5-1.5.5-3.1 0-2.7-.3-3-3.3-3-3.1 0-3.3.2-3.3 3.4zM603 421.3c0 3.1.2 3.3 3.2 3.3 2.9-.1 3.2-.4 3.3-3.1 0-2.7-.4-3-3.2-3.3-3.1-.3-3.3-.2-3.3 3.1zM663.5 418.8c-.3.3-.5 1.8-.5 3.4 0 2.5.3 2.8 3.6 2.8 3.4 0 3.5-.1 3.2-3.3-.3-2.7-.7-3.2-3-3.3-1.5-.1-3 .1-3.3.4zM672.5 418.8c-.3.3-.5 1.8-.5 3.4 0 2.5.3 2.8 3.3 2.8 3.1 0 3.4-.3 3.4-3 0-1.7-.3-3.1-.6-3.1-2.2-.5-5.1-.5-5.6-.1zM681 421.6c0 3.2.2 3.4 3.4 3.4 3.2 0 3.5-.2 3.2-2.8-.2-1.5-.4-2.9-.5-3.2 0-.3-1.4-.6-3.1-.6-2.8-.2-3 .1-3 3.2zM690 421.6c0 3.2.2 3.4 3.4 3.4 3.1 0 3.4-.2 3.2-3 0-1.7-.3-3.1-.6-3.1-.3-.1-1.7-.3-3.2-.5-2.6-.3-2.8 0-2.8 3.2zM699 421.6c0 3.2.2 3.4 3.4 3.4 3.1 0 3.3-.2 3.2-3.3-.1-2.9-.5-3.2-3.4-3.4-3-.1-3.2.1-3.2 3.3zM708.6 418.7c-.3.4-.6 1.9-.6 3.5 0 2.7.3 2.9 3.3 2.6 3.3-.3 4.1-1.8 2.6-4.8-.7-1.6-4.2-2.4-5.3-1.3z"/></svg>