<?xml version="1.0" encoding="UTF-8"?>
<svg width="500" height="500" version="1.1" viewBox="0 0 500.00001 500.00001" xmlns="http://www.w3.org/2000/svg">
 <g transform="translate(0 -552.36)">
  <rect x="2e-6" y="552.36" width="500" height="500" fill="#3f51b5"/>
 </g>
 <path d="m250 45.951 67.532 38.99" fill="none" stroke="#fff" stroke-linecap="round" stroke-linejoin="round" stroke-width="7"/>
 <path d="m250 45.951-67.532 38.99" fill="none" stroke="#fff" stroke-linecap="round" stroke-linejoin="round" stroke-width="7"/>
 <path d="m250 84.94 77.02 382.45" fill="none" stroke="#fff" stroke-linecap="round" stroke-linejoin="round" stroke-width="7"/>
 <path d="m250 84.94-77.02 382.45" fill="none" stroke="#fff" stroke-linecap="round" stroke-linejoin="round" stroke-width="7"/>
 <path d="m250 32.615v400.8" fill="none" stroke="#fff" stroke-linecap="round" stroke-linejoin="round" stroke-width="7"/>
 <rect x="142.35" y="84.94" width="215.29" height="226.16" ry="8.8586" fill="#3f51b5" stroke="#fff" stroke-linecap="round" stroke-linejoin="round" stroke-width="7"/>
 <path d="m142.35 121.36h215.29" fill="none" stroke="#fff" stroke-width="7"/>
 <g transform="matrix(.696 0 0 .696 204.1 29.803)" fill="#fff">
  <circle cx="154.91" cy="105.38" r="5"/>
  <circle cx="185.26" cy="105.38" r="5"/>
 </g>
 <g transform="matrix(.696 0 0 .696 59.146 29.803)" fill="#fff">
  <circle cx="154.91" cy="105.38" r="5"/>
  <circle cx="185.26" cy="105.38" r="5"/>
 </g>
</svg>
